<svg id="Layer_1" data-name="Layer 1" xmlns="http://www.w3.org/2000/svg" viewBox="0 0 19.17 19.17"><defs><style>.cls-1{fill:#0a1972;}</style></defs><title>fb</title><path class="cls-1" d="M1327.28,25.69V9.59a0.19,0.19,0,0,0,0-.07s0,0,0-.07a1.2,1.2,0,0,1,.19-0.61,1.63,1.63,0,0,1,.91-0.73,1.13,1.13,0,0,1,.3,0h0.06a0.19,0.19,0,0,0,.07,0h16.1a0.19,0.19,0,0,0,.07,0H1345a1.2,1.2,0,0,1,.62.19,1.64,1.64,0,0,1,.73.91,1.17,1.17,0,0,1,0,.29V9.52a0.19,0.19,0,0,0,0,.07v16.1a0.19,0.19,0,0,0,0,.07v0.07a1.2,1.2,0,0,1-.19.61,1.63,1.63,0,0,1-.91.73,1.13,1.13,0,0,1-.3,0H1345a0.25,0.25,0,0,0-.09,0h-4.53a0.07,0.07,0,0,1,0-.06s0-.06,0-0.09q0-3.66,0-7.33a0.19,0.19,0,0,1,0-.14h3s0,0,0,0h-3s0,0,0,0h2.86c0.13,0,.13,0,0.13-0.13q0-1.24,0-2.47a0.15,0.15,0,0,0,0-.11,0.3,0.3,0,0,0-.16,0h-2.77a0.2,0.2,0,0,1-.09,0,0.08,0.08,0,0,1,0-.07c0-.23,0-0.47,0-0.7s0-.38,0-0.57,0-.23,0-0.34a0.08,0.08,0,0,0,0-.07,1.26,1.26,0,0,1,.3-0.76,1.49,1.49,0,0,1,.48-0.39,0.79,0.79,0,0,1,.25-0.09,0.27,0.27,0,0,0,.15,0l0,0s0.08,0,.13,0a0,0,0,0,1,0,0,0.06,0.06,0,0,1,.06,0,0.12,0.12,0,0,0,.09,0s0,0,0,0a0,0,0,0,1,0,0,0.55,0.55,0,0,0,.08,0s0,0,0,0a0.07,0.07,0,0,1,.07,0,0.19,0.19,0,0,0,.15,0,0.14,0.14,0,0,1-.1,0,0.08,0.08,0,0,1,.08,0h0.08a2.48,2.48,0,0,0,.46,0l0.1,0H1343a0.06,0.06,0,0,1,.06,0,0.15,0.15,0,0,1-.1,0,0.31,0.31,0,0,0,.18,0,0.1,0.1,0,0,1,.1,0,0,0,0,0,1,0,0h0.08a0.12,0.12,0,0,0,.12,0,0.13,0.13,0,0,0,0-.08q0-1.28,0-2.56a0.13,0.13,0,0,0,0-.11s0,0,0,0h-0.07a0.63,0.63,0,0,0-.27,0h-0.26a0.06,0.06,0,0,1-.07,0,0.07,0.07,0,0,1,.06,0h0.2a1.49,1.49,0,0,1-.2,0,4.88,4.88,0,0,1-.53,0,1,1,0,0,1-.22,0h0a0.05,0.05,0,0,1,0,0,0.06,0.06,0,0,1-.06,0h-0.2a0.69,0.69,0,0,0-.3,0s-0.06,0-.08,0a0.11,0.11,0,0,1-.1,0,0.06,0.06,0,0,0-.07,0,0,0,0,0,1,.05,0,0.06,0.06,0,0,1-.08,0l0,0h0a0,0,0,0,1-.05,0h0s0,0,0,0a0,0,0,0,1,0,0,0.11,0.11,0,0,0-.08,0s0,0,0,0a0.06,0.06,0,0,1-.07,0,0.23,0.23,0,0,0-.16,0,0,0,0,0,1,0,0,0.19,0.19,0,0,0-.17,0l-0.08,0a0.27,0.27,0,0,0-.16,0,0,0,0,0,1,0,0,0.1,0.1,0,0,0-.1,0h0a0.2,0.2,0,0,0-.12,0l0,0a0.54,0.54,0,0,0-.21.06,1.16,1.16,0,0,0-.3.14l0,0a0.83,0.83,0,0,0-.21.1l-0.24.16h0l0,0h0l0,0h0a0.59,0.59,0,0,0-.15.13h0a0.32,0.32,0,0,0-.12.11h0a0.26,0.26,0,0,0-.07.08h0l0,0h0l0,0,0,0a0.43,0.43,0,0,0-.11.17v0a0.21,0.21,0,0,0-.07.11l0,0,0,0,0,0a0.26,0.26,0,0,0-.07.1,1.93,1.93,0,0,0-.18.39v0a0.07,0.07,0,0,0,0,.06v0a0.13,0.13,0,0,0,0,.09v0a0.08,0.08,0,0,0,0,.07,0.06,0.06,0,0,1,0,0,0.67,0.67,0,0,0-.08.26v0a0.11,0.11,0,0,0,0,.09,0.06,0.06,0,0,1,0,0,0.11,0.11,0,0,0,0,.1,0.15,0.15,0,0,1,0,.08,0.12,0.12,0,0,0,0,.12,0.05,0.05,0,0,1,0,0,0.31,0.31,0,0,0,0,.2,0.16,0.16,0,0,1,0,.08,0.26,0.26,0,0,0,0,.21,0.06,0.06,0,0,1,0,.06,0.17,0.17,0,0,0,0,.13,0.06,0.06,0,0,1,0,.07,0,0,0,0,1,0,0s0,0,0,0a0,0,0,0,0,0,.05h0a0.08,0.08,0,0,1,0,.09h0a0.64,0.64,0,0,1,0,.23,0.79,0.79,0,0,0,0,.12,1.16,1.16,0,0,1,0,.13,0,0,0,0,1,0,.06,0.49,0.49,0,0,1,0-.14s0,0,0,0h0a0.43,0.43,0,0,0,0,.22c0,0.34,0,.68,0,1a0.07,0.07,0,0,1,0,.08h0c0-.28,0-0.57,0-0.86,0,0,0,0,0,0h0a0.05,0.05,0,0,1,0,0q0,0.38,0,.77a0.11,0.11,0,0,1,0,0,0.11,0.11,0,0,1-.09,0h-1.77a0.34,0.34,0,0,0-.14,0v0a0.34,0.34,0,0,0,0,.13q0,1.22,0,2.43a0.31,0.31,0,0,0,0,.14,0.1,0.1,0,0,0,.1,0h1.83c0.09,0,.09,0,0.09.09q0,3.73,0,7.47a0.1,0.1,0,0,1,0,.08h-8.58a0.14,0.14,0,0,0-.06,0,1.2,1.2,0,0,1-.61-0.19,1.64,1.64,0,0,1-.73-0.91,1.16,1.16,0,0,1,0-.29s0,0,0-.07A0.19,0.19,0,0,0,1327.28,25.69Z" transform="translate(-1327.28 -8.06)"/></svg>