<svg id="Layer_1" data-name="Layer 1" xmlns="http://www.w3.org/2000/svg" viewBox="0 0 380.15 383.01"><defs><style>.cls-1{fill:#fff;}</style></defs><title>fb_blanco</title><path class="cls-1" d="M162.57,59A53.57,53.57,0,0,0,109,112.57V388.44A53.57,53.57,0,0,0,162.57,442h45.1V301.93h-25.4a12.9,12.9,0,0,1-12.9-12.9V251a12.9,12.9,0,0,1,12.9-12.9h25.4V180.15a69.74,69.74,0,0,1,69.74-69.73h57.81a12.9,12.9,0,0,1,12.91,12.91v50.79A12.9,12.9,0,0,1,335.22,187h-38a12.9,12.9,0,0,0-12.91,12.91v38.16h50.94A12.9,12.9,0,0,1,348.13,251v38a12.9,12.9,0,0,1-12.91,12.9H284.28V442H435.58a53.57,53.57,0,0,0,53.57-53.57V112.57A53.58,53.58,0,0,0,435.58,59h-273Zm0,0" transform="translate(-109 -59)"/></svg>