<svg id="Layer_1" data-name="Layer 1" xmlns="http://www.w3.org/2000/svg" viewBox="0 0 103 103"><defs><style>.cls-1{fill:#bb141d;}</style></defs><title>icono-reconstruccion</title><path class="cls-1" d="M488.75,875.5a51.5,51.5,0,1,1,51.5-51.5A51.56,51.56,0,0,1,488.75,875.5Zm0-100a48.5,48.5,0,1,0,48.5,48.5A48.55,48.55,0,0,0,488.75,775.5Z" transform="translate(-437.25 -772.5)"/><path class="cls-1" d="M517,808.06a1.43,1.43,0,0,0-.45-1L505,796a1.43,1.43,0,0,0-.87-0.39l-13-1a1.44,1.44,0,0,0-1.1.4l-9.94,9.57a1.43,1.43,0,0,0-.43,1.16L480.58,816l-20.33,19a1.43,1.43,0,0,0-.45,1v7.67a1.43,1.43,0,0,0,.4,1l6.35,6.58a1.43,1.43,0,0,0,1,.44H476a1.43,1.43,0,0,0,1-.42l19.44-19.53,9.2,0.78a1.43,1.43,0,0,0,1.13-.41l9.86-9.86,0.06-.07,0.11-.13,0.06-.1,0.08-.14,0-.11a1.4,1.4,0,0,0,0-.15s0-.09,0-0.13,0-.08,0-0.12,0,0,0,0V808.06Zm-2.87.62v11.18l-10.43-.42-11.6-11.09,0.57-10.68,10.64,0.81ZM482,818.6l11.82,11.78-2.5,2.52h-4.55l-0.86-.86L479,825.09v-3.65Zm3.84,19.8H481.3l-3.7-3.7-4.1-4.1v-4l2.64-2.47v1.56a1.43,1.43,0,0,0,.42,1l2,2h0l6.69,6.69a1.43,1.43,0,0,0,1,.42h2.29ZM480.33,844h-4.77l-0.86-.86-5.41-5.41-1.54-1.54V832l2.87-2.69v1.91a1.43,1.43,0,0,0,.42,1l2,2h0l2.57,2.57,2.83,2.84h0l1.28,1.28a1.43,1.43,0,0,0,1,.42H483Zm-4.95,5h-7.19l-5.53-5.73v-6.47l2.23-2.09v2.11a1.43,1.43,0,0,0,.42,1l2,2,5.41,5.41,1.28,1.28a1.43,1.43,0,0,0,1,.42h2.51Zm29.82-19.22-8.68-.74-13.08-13-0.88-9.74,7.2-6.93-0.51,9.56a1.43,1.43,0,0,0,.44,1.11l12.46,11.92a1.43,1.43,0,0,0,.93.4l9.19,0.37Z" transform="translate(-437.25 -772.5)"/><path class="cls-1" d="M511.4,813.93l-5.55-.36-6.41-6.41a1.5,1.5,0,0,0-2.12,2.12l6.81,6.81,0,0a1.49,1.49,0,0,0,.44.29l0.07,0a1.48,1.48,0,0,0,.43.1l6.11,0.4h0.1A1.5,1.5,0,0,0,511.4,813.93Z" transform="translate(-437.25 -772.5)"/></svg>