<svg id="Layer_1" data-name="Layer 1" xmlns="http://www.w3.org/2000/svg" viewBox="0 0 103 103"><defs><style>.cls-1{fill:#bb141d;}</style></defs><title>icono-reparacion</title><path class="cls-1" d="M683.75,875.5a51.5,51.5,0,1,1,51.5-51.5A51.56,51.56,0,0,1,683.75,875.5Zm0-100a48.5,48.5,0,1,0,48.5,48.5A48.55,48.55,0,0,0,683.75,775.5Z" transform="translate(-632.25 -772.5)"/><path class="cls-1" d="M685.43,816.25q1.53-1.5,3-3a1.32,1.32,0,0,0,.22-1.69c-0.2-.37-0.43-0.73-0.63-1.11-1.73-3.28-1.54-6.35.77-8.51a16.57,16.57,0,0,1,10.42-4.52c-1.44,1.45-2.75,2.74-4,4.06a3.5,3.5,0,0,0,0,5.32c1.87,1.9,3.74,3.79,5.65,5.64a3.44,3.44,0,0,0,5.22,0c1.28-1.27,2.53-2.58,3.79-3.87l0.31,0.16a16,16,0,0,1-5.38,10.82,4.83,4.83,0,0,1-2.88,1.06,8.23,8.23,0,0,1-4.67-1c-2.41-1.33-2.23-1.06-4.06.74l-0.25.25c-0.61.6-1,1.29-.26,2a1.19,1.19,0,0,0,1.89-.35c0.66-.88,1.27-0.82,2.21-0.38,4.6,2.18,8.64,1.22,11.69-2.72a20.61,20.61,0,0,0,3.85-8.31,10.59,10.59,0,0,0,.11-4.7,1.35,1.35,0,0,0-2.53-.73l-5.25,5.22c-1,1-1.47,1-2.43,0q-2.59-2.56-5.16-5.15c-1-1-1-1.5,0-2.51q2.53-2.55,5.07-5.07a1.67,1.67,0,0,0,.76-1.79c-0.26-.77-1-0.76-1.61-0.94a3.75,3.75,0,0,0-.8-0.05c-4.54-.23-8.46,1.46-12,4.11s-4.62,6-3.44,9.85c0.32,1.05,1.26,2.18,1.05,3.06s-1.47,1.7-2.27,2.53a1.17,1.17,0,0,0-.15,1.82A1.15,1.15,0,0,0,685.43,816.25Z" transform="translate(-632.25 -772.5)"/><path class="cls-1" d="M680.11,833.32c-1.22,1.24-2.42,2.49-3.67,3.69a1.89,1.89,0,0,0-.55,2,9.21,9.21,0,0,1-.25,5.23,9.47,9.47,0,1,1-7.1-12.42,2.14,2.14,0,0,0,2.11-.55c1.71-1.78,3.47-3.51,5.23-5.24a1.24,1.24,0,0,0,.13-2c-0.71-.69-1.26-0.13-1.77.37-1.53,1.52-3.06,3-4.58,4.59a1.38,1.38,0,0,1-1.31.5c-7.07-1-13.35,4.36-13.47,12a11.42,11.42,0,0,0,6.6,10.13,11.67,11.67,0,0,0,16.75-12.31,1.2,1.2,0,0,1,.39-1.22c1.05-1,2.08-2.07,3.12-3.1,0.61-.6,1-1.3.28-2S680.68,832.74,680.11,833.32Z" transform="translate(-632.25 -772.5)"/><path class="cls-1" d="M710.41,840.35c-4.53-4.63-9.16-9.16-13.75-13.75a5.66,5.66,0,0,0-3.59-1.66,2.86,2.86,0,0,1-2.59-3c0.16-1.9-1.07-2.93-2.45-3.72a2.88,2.88,0,0,0-3.7.61c-0.65.69-.94,0.24-1.35-0.17-4.55-4.56-9.07-9.15-13.69-13.64a2.83,2.83,0,0,1-1-3.21,1.52,1.52,0,0,0-.73-2l-7.9-4.56a1.41,1.41,0,0,0-2,.31c-0.73.8-1.49,1.56-2.29,2.29a1.5,1.5,0,0,0-.27,2.14c1.42,2.38,2.82,4.78,4.15,7.21,0.6,1.11,1.32,1.66,2.59,1.22a2.47,2.47,0,0,1,2.79.91c4.56,4.66,9.19,9.25,13.81,13.84,0.47,0.47.69,0.75,0.1,1.36a3,3,0,0,0-.55,3.72c0.82,1.33,1.8,2.53,3.64,2.4a2.83,2.83,0,0,1,3,2.66,5.52,5.52,0,0,0,1.63,3.48q6.91,6.92,13.82,13.84a6.83,6.83,0,0,0,5.28,2.19,8,8,0,0,0,1.72-.15A7.34,7.34,0,0,0,710.41,840.35Zm-45-33.47a2.28,2.28,0,0,0-2.55-.81,1.59,1.59,0,0,1-2.17-1,57.32,57.32,0,0,0-2.93-5.11c-0.57-.9.21-1.13,0.58-1.58a0.92,0.92,0,0,1,1.42-.38c1.79,1.12,3.64,2.16,5.5,3.18a1,1,0,0,1,.65,1.37c-0.54,1.55.17,2.56,1.25,3.62,4.71,4.61,9.35,9.31,14,14a10.55,10.55,0,0,0,1,.78c-1.26,1.49-1.26,1.49-2.45.3C674.93,816.45,670.14,811.68,665.39,806.89Zm43.45,42.35c-2,2-4.93,1.91-7.11-.25-4.61-4.55-9.17-9.14-13.76-13.71a3.14,3.14,0,0,1-1-2.81,1.78,1.78,0,0,0-.62-1.65c-0.56-.53-1.11-1.07-1.63-1.64-0.72-.78-1.37-1.35-2.57-0.67-0.84.47-1.36-.47-1.85-1a1,1,0,0,1,.21-1.53l5.23-5.23a1.05,1.05,0,0,1,1.62-.18c0.55,0.53,1.45,1,.88,2a1.46,1.46,0,0,0,.4,2q0.89,0.83,1.72,1.72a2,2,0,0,0,1.92.9,3.34,3.34,0,0,1,2.8,1c4.57,4.58,9.16,9.15,13.71,13.76A5,5,0,0,1,708.84,849.24Z" transform="translate(-632.25 -772.5)"/><path class="cls-1" d="M669.13,834.92a1.53,1.53,0,0,0-1.68-.41c-1.55.46-3.11,0.88-4.67,1.3a1.69,1.69,0,0,0-1.33,1.28c-0.41,1.56-.88,3.11-1.31,4.66a1.68,1.68,0,0,0,.41,1.81c1.22,1.18,2.41,2.39,3.6,3.59a1.72,1.72,0,0,0,1.14.56c1.78-.49,3.55-1,5.34-1.45a1.69,1.69,0,0,0,1.36-1.37q0.56-2.36,1.2-4.69a1.58,1.58,0,0,0-.47-1.67Zm0.74,8.79c-0.19.63-4.09,1.7-4.57,1.25-0.88-.81-1.73-1.65-2.53-2.53-0.53-.58.61-4.35,1.36-4.58,1-.3,2-0.56,3-0.84a1.36,1.36,0,0,1,.22-0.05c0.67-.07,3.46,2.74,3.39,3.44C670.46,841.48,670.2,842.6,669.87,843.71Z" transform="translate(-632.25 -772.5)"/><path class="cls-1" d="M692.2,830.74c-0.73-.74-1-0.35-1.52.14s-1,.82-0.17,1.6c4.22,4.12,8.35,8.32,12.54,12.47,0.23,0.23.4,0.8,0.89,0.44s1-.83,1.53-1.27c-0.37-.41-0.57-0.64-0.78-0.86C700.52,839.09,696.33,835,692.2,830.74Z" transform="translate(-632.25 -772.5)"/></svg>