<svg id="Layer_1" data-name="Layer 1" xmlns="http://www.w3.org/2000/svg" viewBox="0 0 103 103"><defs><style>.cls-1{fill:#bb141d;}</style></defs><title>icono-venta</title><path class="cls-1" d="M293.75,875.5a51.5,51.5,0,1,1,51.5-51.5A51.56,51.56,0,0,1,293.75,875.5Zm0-100a48.5,48.5,0,1,0,48.5,48.5A48.55,48.55,0,0,0,293.75,775.5Z" transform="translate(-242.25 -772.5)"/><path class="cls-1" d="M286,830.28c-0.11,0-10.79-2.92-10.79-12.27s10.62-12.16,11.07-12.27a1.44,1.44,0,0,0-.34-2.85H264a1.45,1.45,0,0,0-1.44,1.44v27.35a1.45,1.45,0,0,0,1.44,1.44h21.64A1.44,1.44,0,0,0,286,830.28ZM272.32,818a14.23,14.23,0,0,0,5,10.81l1.6,1.42H265.43V805.77H279.1l-1.64,1.42A14.12,14.12,0,0,0,272.32,818Z" transform="translate(-242.25 -772.5)"/><path class="cls-1" d="M296.18,823a5,5,0,0,0-.44-1.8,7.87,7.87,0,0,0-.45-0.88,9.75,9.75,0,0,0-1.69-2.06c-0.23-.23-0.69-0.62-1.4-1.18a9.53,9.53,0,0,1-1.33-1.21,4.1,4.1,0,0,1-1.18-2.65,2.63,2.63,0,0,1,.35-1.4,1.41,1.41,0,0,1,1.27-.7,1.55,1.55,0,0,1,1.21.48,3.36,3.36,0,0,1,.72,1.9,1.49,1.49,0,0,0,1.41,1.13,1.42,1.42,0,0,0,1.42-1.42,0.9,0.9,0,0,0,0-.17,5.56,5.56,0,0,0-.67-2.29,4,4,0,0,0-1.42-1.47,4.48,4.48,0,0,0-.86-0.38l-0.29-.1v-2.72a1.55,1.55,0,0,0-3.1,0v2.73l-0.28.1a4,4,0,0,0-1,.49,4.52,4.52,0,0,0-1.8,3.88,5.48,5.48,0,0,0,.67,2.66,11,11,0,0,0,2.1,2.45l2.61,2.35a3.53,3.53,0,0,1,1.18,2.4,2.22,2.22,0,0,1-.32,1.28,1.93,1.93,0,0,1-1.62.92,1.61,1.61,0,0,1-1.22-.55,3.73,3.73,0,0,1-.87-2.09v-0.14a1.5,1.5,0,0,0-.42-1.1,1.38,1.38,0,0,0-1-.41,1.42,1.42,0,0,0-1.42,1.42v0.15a7.09,7.09,0,0,0,.65,2.62,4.66,4.66,0,0,0,1.51,1.83,4.06,4.06,0,0,0,.93.48l0.27,0.1v2.24a1.55,1.55,0,0,0,3.1,0v-2.13l0.3-.09a3.84,3.84,0,0,0,2-1.3A5.15,5.15,0,0,0,296.18,823Z" transform="translate(-242.25 -772.5)"/><path class="cls-1" d="M328.49,824l-8.63-8V804.33a1.45,1.45,0,0,0-1.44-1.44H296.77a1.44,1.44,0,0,0-.35,2.84c0.39,0.1,9.57,2.54,10.67,10.66l0.13,0.94-1.28,0h-0.15a6.46,6.46,0,0,0-4.87,2.56,7.26,7.26,0,0,0-.56,7.77l0.35,0.71-0.69.37a19,19,0,0,1-3.88,1.56,1.44,1.44,0,0,0,.34,2.85H304v3.69a1.44,1.44,0,0,0,.42,1l3.47,3.47v7.86a1.44,1.44,0,1,0,2.89,0V840.7a1.45,1.45,0,0,0-.42-1l-3.47-3.47v-5.09a1.44,1.44,0,0,0-.42-1l-3.38-3.43a4.57,4.57,0,0,1,.1-5,3.63,3.63,0,0,1,2.72-1.44h0.15a3.07,3.07,0,0,1,2.22.83l0.11,0.11,8.91,7.59a1.53,1.53,0,0,0,1.54.21,1.45,1.45,0,0,0,.84-1.31v-7.85l6.36,5.89v15l-4.2,4.2a1.44,1.44,0,0,0-.42,1v3.27a1.44,1.44,0,1,0,2.89,0v-2.67l4.2-4.2a1.45,1.45,0,0,0,.42-1V825A1.45,1.45,0,0,0,328.49,824Zm-23.43-16.78-1.6-1.42H317L316.91,816a1.38,1.38,0,0,0-.08.44v8l-6.73-5.73,0-.37V818A14.21,14.21,0,0,0,305.06,807.19Z" transform="translate(-242.25 -772.5)"/></svg>