<svg id="Layer_1" data-name="Layer 1" xmlns="http://www.w3.org/2000/svg" viewBox="0 0 103 103"><defs><style>.cls-1{fill:#bb141d;}</style></defs><title>icono-torneo</title><path class="cls-1" d="M1073.75,878.5a51.5,51.5,0,1,1,51.5-51.5A51.56,51.56,0,0,1,1073.75,878.5Zm0-100a48.5,48.5,0,1,0,48.5,48.5A48.55,48.55,0,0,0,1073.75,778.5Z" transform="translate(-1022.25 -775.5)"/><path class="cls-1" d="M1110.6,821.44h-12.25a1.79,1.79,0,0,0-1.69,1.93h-3.58v-9.11c0-3.18-.94-5.6-2.81-7.19a8.34,8.34,0,0,0-5.36-1.83,7.53,7.53,0,0,0-.91,0h-12a2.63,2.63,0,0,0-2.6-2.25h-6.26a2.63,2.63,0,0,0-2.63,2.63v3.08a2.63,2.63,0,0,0,2.63,2.63h6.26a2.63,2.63,0,0,0,2.52-1.93l12.39,0h0.11a4.37,4.37,0,0,1,3.15.83c0.88,0.77,1.33,2.12,1.33,4v9.11h-3.11a2.22,2.22,0,0,0-2.22-2.19h-36.1a2.22,2.22,0,0,0-2.22,2.22v3.84H1033.2l2.77,4.16h9.31v5.35a2.22,2.22,0,0,0,2.22,2.22h14.75a18.49,18.49,0,0,0-1.3,6.83,1.41,1.41,0,0,0,1.41,1.41h34.4a1.41,1.41,0,0,0,1.41-1.41,18.62,18.62,0,0,0-.77-5.29,16,16,0,0,0-.92-2.45l-0.25-.52-0.22-.43-0.07-.13-0.24-.43-0.31-.53c-0.33-.54-0.7-1.07-1.07-1.58a1.45,1.45,0,0,0-.26-0.36l-0.16-.19v-2.19h2.77v0.45a1.79,1.79,0,0,0,1.69,1.94h12.25a1.79,1.79,0,0,0,1.69-1.94v-8.75A1.79,1.79,0,0,0,1110.6,821.44Zm-11.1,9.8v-7h9.95v7h-9.95Zm-35.68,13.14a15.51,15.51,0,0,1,1.11-4.57,32.26,32.26,0,0,1,1.63-3,15.81,15.81,0,0,1,13-6.81l0.73,0a16.3,16.3,0,0,1,10.26,4.39l0,0a15.46,15.46,0,0,1,1.19,1.29,1.43,1.43,0,0,0,.12.18,16.82,16.82,0,0,1,1.09,1.57l0.72,1.3,0.25,0.53a14.86,14.86,0,0,1,.69,1.78l0,0.17a15.72,15.72,0,0,1,.6,3.13h-31.46ZM1083,827.54a22.13,22.13,0,0,0-2.42-.33h-0.2l-0.79,0a18.59,18.59,0,0,0-11.42,3.93h0a18.8,18.8,0,0,0-3.9,4.12c-0.18.27-.36,0.57-0.53,0.88h-15.58V824H1083v3.53Zm8.18,1.43v2.23a18.33,18.33,0,0,0-5.46-2.95v-2.18h11V829h-5.5Z" transform="translate(-1022.25 -775.5)"/><path class="cls-1" d="M1076.55,832.49a4.7,4.7,0,1,0,4.71,4.7A4.71,4.71,0,0,0,1076.55,832.49Zm0,2.81a1.89,1.89,0,1,1-1.89,1.89A1.89,1.89,0,0,1,1076.55,835.3Z" transform="translate(-1022.25 -775.5)"/><path class="cls-1" d="M1064.58,829.5H1053a1.5,1.5,0,0,1,0-3h11.58A1.5,1.5,0,0,1,1064.58,829.5Z" transform="translate(-1022.25 -775.5)"/></svg>