<svg id="Layer_1" data-name="Layer 1" xmlns="http://www.w3.org/2000/svg" viewBox="0 0 103 103"><defs><style>.cls-1{fill:#bb141d;}</style></defs><title>icono-refacciones</title><path class="cls-1" d="M877.74,878.5a51.5,51.5,0,1,1,51.5-51.5A51.56,51.56,0,0,1,877.74,878.5Zm0-100a48.5,48.5,0,1,0,48.5,48.5A48.55,48.55,0,0,0,877.74,778.5Z" transform="translate(-826.24 -775.5)"/><path class="cls-1" d="M906.33,801.13l-0.76-.77c-0.74-.76-1.57-1.61-2.41-2.39A3.18,3.18,0,0,0,901,797c-1.4,0-2.15,1.12-2.81,2.11a6.21,6.21,0,0,1-1.07,1.34,8.61,8.61,0,0,1-1.6,1c-0.31.16-.62,0.32-0.91,0.49l-0.42.26a8.42,8.42,0,0,1-1.2.66l-1-1-0.07-.05a5.57,5.57,0,0,0-2.68-.72,5.28,5.28,0,0,0-4.71,3,3.79,3.79,0,0,1-2.4,2.07,6,6,0,0,0-4,3.55,3.19,3.19,0,0,1-2.26,1.93,9.19,9.19,0,0,0-3.64,2.08l-2.35,2-1.69,1.42-0.73-.73-0.06,0-0.27-.16a5.62,5.62,0,0,0-2.78-.76,4.7,4.7,0,0,0-3.36,1.35l-6.1,6.1A5.23,5.23,0,0,0,855,830l0.35,0.4-0.85.85c-1,1-2,2-2.94,3-2.1,2.13-2.1,4.73,0,6.94l0.33,0.36c0.22,0.24.44,0.48,0.69,0.72l0.68,0.66-0.89.3a5.28,5.28,0,0,0-1.84,1.09,5.15,5.15,0,0,0-1.75,3.6,4.89,4.89,0,0,0,1.35,3.56l0.56,0.6a15.46,15.46,0,0,0,5.62,4.38,7.35,7.35,0,0,0,3.72,1.06,7.75,7.75,0,0,0,3.66-1,14.35,14.35,0,0,0,4.93-2.94c1.49-1.45,3-2.92,4.44-4.38l0.51-.51,0.34,0.26a5.92,5.92,0,0,0,4.18,1.84,4.7,4.7,0,0,0,3.36-1.35l6.1-6.1a5.1,5.1,0,0,0,.58-6.16l-0.16-.27,0-.06-0.57-.57,1.44-1.71,0.11-.13,2-2.35a8.46,8.46,0,0,0,2-3.49,3.16,3.16,0,0,1,2-2.25,6.07,6.07,0,0,0,3.54-4,3.35,3.35,0,0,1,2.06-2.37,4.28,4.28,0,0,0,1.75-1.34,5.22,5.22,0,0,0,.54-6.06l0-.06-1.22-1.22a5.94,5.94,0,0,1,.49-0.85,15,15,0,0,0,.93-1.63,9.51,9.51,0,0,1,1.43-2.23,8.83,8.83,0,0,1,1-.85,7,7,0,0,0,1.38-1.3A2.48,2.48,0,0,0,906.33,801.13Zm-6.83,7.7a1.37,1.37,0,0,1-.5,0l-3.68-3.68a1.41,1.41,0,0,1,.8-0.91l0.2-.13,0.1-.08c0.28-.22.58-0.42,0.87-0.62a11.16,11.16,0,0,0,1.38-1c0.19-.18.37-0.37,0.56-0.57a3.31,3.31,0,0,1,1.61-1.18,2.63,2.63,0,0,1,1.35.46,4.41,4.41,0,0,1,1.16,1.18c0.77,1.09,0,2.22-1,3.27l-0.47.49c-0.25.25-.49,0.5-0.72,0.77a5.19,5.19,0,0,0-.55.83A2.32,2.32,0,0,1,899.5,808.83ZM870.09,819c1.61-1.34,3.28-2.72,4.92-4a5.52,5.52,0,0,1,3.43-1.05c1.19,0,1.32-.14,1.59-1.42,0.59-2.84,1.88-4,4.75-4.09,1.28-.06,1.5-0.26,1.7-1.55v-0.14a3.35,3.35,0,0,1,.09-0.65,2.81,2.81,0,0,1,2.68-2.3,3.14,3.14,0,0,1,1.75.57,5.92,5.92,0,0,1,.91.8l0.18,0.19,6.14,6.13,1,1a6.85,6.85,0,0,1,.65.7,3.07,3.07,0,0,1,.56,3.08,2.68,2.68,0,0,1-2.29,1.56c-1.76.18-2.29,0.78-2.25,2.56a3.81,3.81,0,0,1-3.29,3.84l-0.4.08-0.58.13c-1,.26-1.14.58-1.13,1.18a7.29,7.29,0,0,1-2,5.09c-1,1.2-2,2.41-3.06,3.62Zm16,20.77a1.94,1.94,0,0,1-.53,1.54l-6.1,6.1a2.56,2.56,0,0,1-3.45-.39l-18.75-18.75a2.52,2.52,0,0,1-.39-3.45l6.1-6.1a1.87,1.87,0,0,1,1.34-.48,3,3,0,0,1,2.1.87l18.75,18.75A3.07,3.07,0,0,1,886.07,839.81Zm-30.71,6.5a8,8,0,0,0,3.31,2.84h0a3.68,3.68,0,0,0,3-.35l0.24-.12a0.3,0.3,0,0,0,.08-0.48l-0.79-.8a0.29,0.29,0,0,0-.27-0.09,3,3,0,0,1-.46,0,3.9,3.9,0,0,1-2.55-.93c-1.3-1.14-1.12-2.07-1.11-2.11a0.31,0.31,0,0,0,0-.08,3.69,3.69,0,0,0-1.71-3.47,8.47,8.47,0,0,1-1.24-1.19l-0.31-.34c-1-1.11-1.05-2,0-3s2.14-2.16,3.22-3.23l0.53-.53,14.2,14.32-0.47.47c-1.4,1.4-2.89,2.88-4.41,4.36a11.89,11.89,0,0,1-4.19,2.41,4.94,4.94,0,0,1-2.46.7,4.45,4.45,0,0,1-2.4-.75,12.55,12.55,0,0,1-4.85-3.77l-0.57-.62a2.08,2.08,0,0,1-.6-1.52,2.35,2.35,0,0,1,.83-1.63A2.3,2.3,0,0,1,855.36,846.32Z" transform="translate(-826.24 -775.5)"/><path class="cls-1" d="M889,823.22a1.36,1.36,0,0,0,.55-0.92,1.34,1.34,0,0,0-.5-0.93c-1-1-5.13-5.13-6.21-6.23a1.3,1.3,0,0,0-.9-0.49,1.34,1.34,0,0,0-.91.54l-0.2.19a1.36,1.36,0,0,0-.55.92,1.34,1.34,0,0,0,.5.93c1,1,5.16,5.15,6.21,6.23a1.3,1.3,0,0,0,.9.49,1.34,1.34,0,0,0,.91-0.54Z" transform="translate(-826.24 -775.5)"/><path class="cls-1" d="M892.72,817.73a1.3,1.3,0,0,0,.9.49,1.34,1.34,0,0,0,.91-0.54l0.2-.19a1.36,1.36,0,0,0,.55-0.92,1.34,1.34,0,0,0-.51-0.93c-1-1-5.13-5.12-6.21-6.23a1.3,1.3,0,0,0-.9-0.49,1.34,1.34,0,0,0-.91.54l-0.2.19a1.36,1.36,0,0,0-.55.92,1.34,1.34,0,0,0,.5.93C887.54,812.52,891.67,816.67,892.72,817.73Z" transform="translate(-826.24 -775.5)"/></svg>