<svg id="Layer_1" data-name="Layer 1" xmlns="http://www.w3.org/2000/svg" viewBox="0 0 205.9 28.22"><defs><style>.cls-1{fill:#bb141d;}.cls-2{fill:#fff;}</style></defs><title>logo</title><polygon class="cls-1" points="204.19 13.38 181.34 13.38 183.06 6.98 205.9 6.98 204.19 13.38"/><polygon class="cls-1" points="172.43 0 166.68 22 160.28 22 166.02 0 172.43 0"/><polygon class="cls-1" points="159.73 0 153.98 22 147.57 22 153.32 0 159.73 0"/><polygon class="cls-1" points="184.96 0 179.21 22 172.8 22 178.55 0 184.96 0"/><polygon class="cls-1" points="197.52 6.98 191.93 28.21 185.52 28.21 191.11 6.98 197.52 6.98"/><polygon class="cls-1" points="178.62 0 176.84 7.02 170.44 7.02 172.22 0 178.62 0"/><polygon class="cls-1" points="166.02 0 164.25 7.02 157.84 7.02 159.62 0 166.02 0"/><polygon class="cls-1" points="154.61 3.37 151.24 0 154.61 0 154.61 3.37"/><polygon class="cls-1" points="165.42 18.63 168.79 22 165.42 22 165.42 18.63"/><polygon class="cls-1" points="177.92 18.63 181.29 22 177.92 22 177.92 18.63"/><polygon class="cls-1" points="190.68 24.84 194.05 28.21 190.68 28.21 190.68 24.84"/><polygon class="cls-1" points="152.76 18.63 156.13 22 152.76 22 152.76 18.63"/><path class="cls-2" d="M120,75.26a5.19,5.19,0,0,1-4.9,4.18h-8.59L108,76.37h7.59A1.46,1.46,0,0,0,117,75.21l0.14-.91a0.94,0.94,0,0,0-1-1.16h-4.34A3.42,3.42,0,0,1,108.4,69l0.19-1a5.21,5.21,0,0,1,4.92-4.18h7.43l-1.49,3.09H113A1.45,1.45,0,0,0,111.62,68l-0.14.88a1,1,0,0,0,1,1.16h4.36a3.42,3.42,0,0,1,3.43,4.18Z" transform="translate(-106.07 -59.83)"/><path class="cls-2" d="M115.15,79.75h-9.08l1.76-3.69h7.78a1.15,1.15,0,0,0,1.06-.91l0.14-.9a0.7,0.7,0,0,0-.13-0.58,0.66,0.66,0,0,0-.52-0.22h-4.34a3.76,3.76,0,0,1-2.94-1.3,3.9,3.9,0,0,1-.8-3.24l0.19-1a5.51,5.51,0,0,1,5.23-4.43h7.92l-1.79,3.71H113a1.15,1.15,0,0,0-1.06.9l-0.14.87a0.69,0.69,0,0,0,.13.58,0.65,0.65,0,0,0,.51.22h4.36a3.76,3.76,0,0,1,2.94,1.3,3.9,3.9,0,0,1,.8,3.24l-0.19,1A5.5,5.5,0,0,1,115.15,79.75Zm-8.09-.62h8.09a4.86,4.86,0,0,0,4.59-3.92l0.18-1a3.29,3.29,0,0,0-.67-2.73,3.15,3.15,0,0,0-2.46-1.08h-4.36a1.26,1.26,0,0,1-1.26-1.53l0.14-.88A1.78,1.78,0,0,1,113,66.54h6.26l1.19-2.47H113.5A4.93,4.93,0,0,0,108.89,68l-0.19,1a3.29,3.29,0,0,0,.67,2.73,3.14,3.14,0,0,0,2.46,1.08h4.34a1.27,1.27,0,0,1,1,.44,1.3,1.3,0,0,1,.26,1.08l-0.14.9a1.76,1.76,0,0,1-1.68,1.42h-7.39Z" transform="translate(-106.07 -59.83)"/><path class="cls-2" d="M133.66,70.06l-0.56,3.09h-7.84l-0.35,2.07a1,1,0,0,0,1,1.16h6.68L132,79.43h-6.73a3.43,3.43,0,0,1-3.46-4.18l1.3-7.31A5.22,5.22,0,0,1,128,63.77h6.73l-1.48,3.09h-5.76A1.45,1.45,0,0,0,126.17,68l-0.63,3.6,1.83-1.55h6.29Z" transform="translate(-106.07 -59.83)"/><path class="cls-2" d="M132.28,79.75h-7a3.78,3.78,0,0,1-3-1.32,3.89,3.89,0,0,1-.81-3.23l1.3-7.31A5.51,5.51,0,0,1,128,63.46h7.22l-1.78,3.71h-6a1.14,1.14,0,0,0-1.06.9L126,70.82l1.27-1.07H134l-0.67,3.71h-7.84l-0.3,1.81a0.67,0.67,0,0,0,.13.57,0.65,0.65,0,0,0,.51.23h7.05ZM128,64.08A4.94,4.94,0,0,0,123.43,68l-1.3,7.31A3.28,3.28,0,0,0,122.8,78a3.17,3.17,0,0,0,2.48,1.09h6.47l0.42-2.44h-6.31a1.28,1.28,0,0,1-1-.45,1.3,1.3,0,0,1-.27-1.07L125,72.83h7.85l0.45-2.47h-5.8l-2.4,2L125.86,68a1.78,1.78,0,0,1,1.68-1.42h5.56l1.19-2.47H128Z" transform="translate(-106.07 -59.83)"/><path class="cls-2" d="M144.07,79.43l-1.9-4.71h-2.71l1.49-3.09h3.32a1.43,1.43,0,0,0,1.37-1.16L146,68a0.94,0.94,0,0,0-1-1.16h-5.45l-2.2,12.58h-3.06l2.76-15.67h8.59a3.39,3.39,0,0,1,3.43,4.11v0.07l-0.46,2.6v0.07a5.3,5.3,0,0,1-3.13,3.74l2.07,5.08h-3.55Zm4.62-8.82v0Zm0.46-2.67v0Z" transform="translate(-106.07 -59.83)"/><path class="cls-2" d="M148.09,79.75h-4.22L142,75h-3l1.78-3.71h3.51a1.13,1.13,0,0,0,1.06-.9L145.74,68a0.69,0.69,0,0,0-.13-0.58,0.66,0.66,0,0,0-.52-0.22H139.9l-2.2,12.58H134l2.87-16.29h8.85a3.76,3.76,0,0,1,2.93,1.29,3.85,3.85,0,0,1,.82,3.15V68L149,70.67a5.62,5.62,0,0,1-3,3.84Zm-3.8-.62h2.88l-2-4.94,0.28-.12a5,5,0,0,0,2.94-3.48V70.49l0.46-2.66a3.25,3.25,0,0,0-.67-2.68,3.15,3.15,0,0,0-2.46-1.07h-8.33l-2.65,15h2.43l2.2-12.58h5.72a1.27,1.27,0,0,1,1,.44,1.3,1.3,0,0,1,.26,1.09l-0.42,2.46a1.75,1.75,0,0,1-1.68,1.42h-3.12l-1.19,2.46h2.43Z" transform="translate(-106.07 -59.83)"/><path class="cls-2" d="M164.51,63.77l-7,15.67h-4.64l-1.44-15.67h3.18l1.14,12.46,5.55-12.46h3.18Z" transform="translate(-106.07 -59.83)"/><path class="cls-2" d="M157.75,79.75h-5.13l-1.5-16.29h3.8L156,75l5.14-11.56H165Zm-4.56-.62h4.16l6.69-15h-2.5l-5.95,13.37-1.22-13.37h-2.55Z" transform="translate(-106.07 -59.83)"/><path class="cls-2" d="M163.64,79.43l2.76-15.67h3.06l-2.76,15.67h-3.06Z" transform="translate(-106.07 -59.83)"/><path class="cls-2" d="M167,79.75h-3.7l2.87-16.29h3.7Zm-3-.62h2.43l2.65-15h-2.43Z" transform="translate(-106.07 -59.83)"/><path class="cls-2" d="M180.29,76.37l-0.53,3.06h-6.52a3.43,3.43,0,0,1-3.46-4.18l1.3-7.31A5.21,5.21,0,0,1,176,63.77h6.52L181,66.86h-5.55A1.45,1.45,0,0,0,174.12,68l-1.25,7.2a1,1,0,0,0,1,1.16h6.48Z" transform="translate(-106.07 -59.83)"/><path class="cls-2" d="M180,79.75h-6.78a3.79,3.79,0,0,1-3-1.32,3.89,3.89,0,0,1-.81-3.23l1.3-7.31A5.51,5.51,0,0,1,176,63.46h7l-1.78,3.71h-5.74a1.14,1.14,0,0,0-1.06.9l-1.25,7.19a0.68,0.68,0,0,0,.13.57,0.65,0.65,0,0,0,.51.23h6.84Zm-4-15.67A4.93,4.93,0,0,0,171.39,68l-1.3,7.31a3.28,3.28,0,0,0,.67,2.72,3.17,3.17,0,0,0,2.48,1.09h6.26l0.43-2.44h-6.11a1.28,1.28,0,0,1-1-.45,1.3,1.3,0,0,1-.27-1.07L173.82,68a1.77,1.77,0,0,1,1.68-1.42h5.35L182,64.08h-6Z" transform="translate(-106.07 -59.83)"/><path class="cls-2" d="M194.33,70.06l-0.56,3.09h-7.84l-0.35,2.07a1,1,0,0,0,1,1.16h6.68l-0.53,3.06h-6.73a3.43,3.43,0,0,1-3.46-4.18l1.3-7.31a5.22,5.22,0,0,1,4.92-4.18h6.73L194,66.86H188.2A1.45,1.45,0,0,0,186.83,68l-0.63,3.6L188,70.06h6.29Z" transform="translate(-106.07 -59.83)"/><path class="cls-2" d="M192.94,79.75h-7a3.79,3.79,0,0,1-3-1.32,3.89,3.89,0,0,1-.81-3.23l1.3-7.31a5.51,5.51,0,0,1,5.23-4.43h7.23l-1.78,3.71h-6a1.14,1.14,0,0,0-1.06.9l-0.48,2.75,1.27-1.07h6.78L194,73.46h-7.84l-0.3,1.81a0.67,0.67,0,0,0,.13.57,0.65,0.65,0,0,0,.51.23h7.05Zm-4.23-15.67A4.94,4.94,0,0,0,184.1,68l-1.3,7.31a3.28,3.28,0,0,0,.67,2.72,3.17,3.17,0,0,0,2.48,1.09h6.47l0.43-2.44h-6.31a1.28,1.28,0,0,1-1-.45,1.3,1.3,0,0,1-.27-1.07l0.39-2.32h7.85L194,70.37h-5.8l-2.4,2L186.52,68a1.78,1.78,0,0,1,1.68-1.42h5.56l1.19-2.47h-6.24Z" transform="translate(-106.07 -59.83)"/><path class="cls-2" d="M207.1,79.43H204l-4.2-9.75-1.72,9.75H195l2.76-15.67h3.06L205,73.52l1.74-9.75h3.09l-2.62,14.81Z" transform="translate(-106.07 -59.83)"/><path class="cls-2" d="M207.37,79.75h-3.56l-3.87-9-1.58,9h-3.7l2.87-16.29h3.53l3.85,9,1.6-9h3.72l-2.69,15.17Zm-3.15-.62h2.62l0.1-.6,2.56-14.45H207l-1.88,10.51-4.51-10.51h-2.6l-2.65,15h2.43l1.85-10.51Z" transform="translate(-106.07 -59.83)"/><path class="cls-2" d="M223,66.86h-4.5l-2.2,12.58h-3.06l1.93-11L217,66.86h-6l0.56-3.09H223.6Z" transform="translate(-106.07 -59.83)"/><path class="cls-2" d="M216.59,79.75h-3.7l2-11.52,1.25-1.06H210.6l0.67-3.71H224l-0.67,3.71h-4.5Zm-3-.62h2.43l2.2-12.58h4.5l0.45-2.47H211.79l-0.44,2.47h6.51l-2.37,2Z" transform="translate(-106.07 -59.83)"/><path class="cls-2" d="M232.31,79.43l-1.9-4.71H227.7l1.48-3.09h3.32a1.43,1.43,0,0,0,1.37-1.16L234.28,68a0.93,0.93,0,0,0-1-1.16h-5.45l-2.21,12.58h-3.06l2.76-15.67H234a3.39,3.39,0,0,1,3.43,4.11v0.07l-0.46,2.6v0.07a5.3,5.3,0,0,1-3.13,3.74l2.07,5.08h-3.55Zm4.62-8.82v0Zm0.46-2.67v0Z" transform="translate(-106.07 -59.83)"/><path class="cls-2" d="M236.33,79.75H232.1L230.2,75h-3L229,71.32h3.51a1.13,1.13,0,0,0,1.06-.9L234,68a0.69,0.69,0,0,0-.13-0.58,0.66,0.66,0,0,0-.52-0.22h-5.19l-2.21,12.58h-3.7l2.87-16.29H234a3.76,3.76,0,0,1,2.93,1.29,3.85,3.85,0,0,1,.82,3.15V68l-0.47,2.67a5.62,5.62,0,0,1-3,3.84Zm-3.8-.62h2.88l-2-4.94,0.28-.12a5,5,0,0,0,2.94-3.48V70.49l0.46-2.66a3.25,3.25,0,0,0-.67-2.68A3.15,3.15,0,0,0,234,64.08h-8.33l-2.65,15h2.43l2.21-12.58h5.71a1.27,1.27,0,0,1,1,.44,1.3,1.3,0,0,1,.26,1.08l-0.42,2.46a1.75,1.75,0,0,1-1.68,1.42h-3.12l-1.19,2.46h2.43Z" transform="translate(-106.07 -59.83)"/><path class="cls-2" d="M252.19,67.95l-1.3,7.31a5.19,5.19,0,0,1-4.9,4.18h-3.95a3.43,3.43,0,0,1-3.46-4.18l1.3-7.31a5.22,5.22,0,0,1,4.92-4.18h3.95A3.42,3.42,0,0,1,252.19,67.95Zm-3.11.07a0.93,0.93,0,0,0-1-1.16H244.3A1.45,1.45,0,0,0,242.93,68l-1.25,7.2a1,1,0,0,0,1,1.16h3.83a1.46,1.46,0,0,0,1.37-1.16Z" transform="translate(-106.07 -59.83)"/><path class="cls-2" d="M246,79.75h-3.95a3.78,3.78,0,0,1-3-1.32,3.89,3.89,0,0,1-.81-3.23l1.3-7.31a5.51,5.51,0,0,1,5.23-4.43h3.95a3.75,3.75,0,0,1,2.94,1.3,3.9,3.9,0,0,1,.8,3.24l-1.3,7.31A5.5,5.5,0,0,1,246,79.75Zm-1.18-15.67A4.94,4.94,0,0,0,240.2,68l-1.3,7.31a3.28,3.28,0,0,0,.67,2.72,3.17,3.17,0,0,0,2.48,1.09H246a4.86,4.86,0,0,0,4.59-3.92l1.3-7.31a3.29,3.29,0,0,0-.67-2.73,3.14,3.14,0,0,0-2.46-1.08h-3.95Zm1.65,12.6h-3.83a1.28,1.28,0,0,1-1-.45,1.3,1.3,0,0,1-.27-1.07L242.63,68a1.78,1.78,0,0,1,1.68-1.42h3.83a1.27,1.27,0,0,1,1,.44,1.3,1.3,0,0,1,.26,1.09l-1.25,7.19A1.76,1.76,0,0,1,246.46,76.68Zm-2.16-9.52a1.15,1.15,0,0,0-1.06.9L242,75.26a0.67,0.67,0,0,0,.13.57,0.65,0.65,0,0,0,.51.23h3.83a1.15,1.15,0,0,0,1.06-.91L248.78,68a0.69,0.69,0,0,0-.13-0.58,0.66,0.66,0,0,0-.52-0.22H244.3Z" transform="translate(-106.07 -59.83)"/><path class="cls-2" d="M214.14,84.27h-1.36l0.09-.53h3.28l-0.09.53h-1.36l-0.64,3.67h-0.57Z" transform="translate(-106.07 -59.83)"/><path class="cls-2" d="M216.37,85.84A2.65,2.65,0,0,1,219,83.63a1.76,1.76,0,0,1,1.81,2.21A2.65,2.65,0,0,1,218.18,88,1.76,1.76,0,0,1,216.37,85.84Zm3.78,0a1.3,1.3,0,0,0-1.29-1.68A2,2,0,0,0,217,85.84a1.3,1.3,0,0,0,1.29,1.68A2,2,0,0,0,220.15,85.84Z" transform="translate(-106.07 -59.83)"/><path class="cls-2" d="M222.18,83.73h1.48a1,1,0,0,1,1.14,1.18A1.41,1.41,0,0,1,223.58,86l0.86,1.92h-0.71L223,86.09h-0.64L222,87.94h-0.57Zm0.25,1.85h0.75a0.87,0.87,0,0,0,1-.68c0.1-.57-0.33-0.68-0.79-0.68h-0.75Z" transform="translate(-106.07 -59.83)"/><path class="cls-2" d="M226.05,83.73h0.75l1.71,3.46h0l0.61-3.46h0.57L229,87.94h-0.73l-1.74-3.46h0l-0.61,3.46h-0.57Z" transform="translate(-106.07 -59.83)"/><path class="cls-2" d="M230.39,85.84A2.65,2.65,0,0,1,233,83.63a1.76,1.76,0,0,1,1.81,2.21A2.65,2.65,0,0,1,232.2,88,1.76,1.76,0,0,1,230.39,85.84Zm3.78,0a1.3,1.3,0,0,0-1.29-1.68A2,2,0,0,0,231,85.84a1.3,1.3,0,0,0,1.29,1.68A2,2,0,0,0,234.17,85.84Z" transform="translate(-106.07 -59.83)"/><path class="cls-2" d="M235.75,87.06a0.86,0.86,0,0,0,.81.45,1,1,0,0,0,1-.7c0.17-1-2-.37-1.72-2a1.58,1.58,0,0,1,1.63-1.18,1.23,1.23,0,0,1,1.13.48l-0.54.42a0.72,0.72,0,0,0-.68-0.37,0.85,0.85,0,0,0-.93.64c-0.19,1.06,2,.43,1.73,1.94a1.64,1.64,0,0,1-1.69,1.3,1.35,1.35,0,0,1-1.24-.58Z" transform="translate(-106.07 -59.83)"/><path class="cls-2" d="M242.21,86.15L241,83.73h0.73l0.82,1.85,1.51-1.85h0.7l-2,2.41-0.31,1.8h-0.57Z" transform="translate(-106.07 -59.83)"/><path class="cls-2" d="M248.72,83.73h0.52l1.06,4.21h-0.67l-0.24-1h-2l-0.6,1h-0.67Zm0.56,2.67-0.45-1.93h0l-1.13,1.93h1.59Z" transform="translate(-106.07 -59.83)"/><path class="cls-2" d="M254.6,84.64a1.07,1.07,0,0,0-.93-0.48,2,2,0,0,0-1.87,1.71,1.27,1.27,0,0,0,1.28,1.64,1.57,1.57,0,0,0,1.2-.57l0.42,0.36A2.38,2.38,0,0,1,253,88a1.77,1.77,0,0,1-1.78-2.18,2.64,2.64,0,0,1,2.59-2.25,1.53,1.53,0,0,1,1.36.65Z" transform="translate(-106.07 -59.83)"/><path class="cls-2" d="M259,84.64a1.07,1.07,0,0,0-.93-0.48,2,2,0,0,0-1.87,1.71,1.27,1.27,0,0,0,1.28,1.64,1.57,1.57,0,0,0,1.2-.57l0.42,0.36a2.38,2.38,0,0,1-1.72.74,1.77,1.77,0,0,1-1.78-2.18,2.64,2.64,0,0,1,2.59-2.25,1.53,1.53,0,0,1,1.36.65Z" transform="translate(-106.07 -59.83)"/><path class="cls-2" d="M260.67,83.73h2.72l-0.09.53h-2.15l-0.22,1.25h2l-0.09.53h-2l-0.24,1.35h2.25l-0.09.53h-2.82Z" transform="translate(-106.07 -59.83)"/><path class="cls-2" d="M264.08,87.06a0.86,0.86,0,0,0,.81.45,1,1,0,0,0,1-.7c0.17-1-2-.37-1.72-2a1.58,1.58,0,0,1,1.63-1.18,1.23,1.23,0,0,1,1.13.48l-0.54.42a0.72,0.72,0,0,0-.68-0.37,0.85,0.85,0,0,0-.93.64c-0.19,1.06,2,.43,1.73,1.94a1.64,1.64,0,0,1-1.69,1.3,1.35,1.35,0,0,1-1.24-.58Z" transform="translate(-106.07 -59.83)"/><path class="cls-2" d="M267.45,85.84A2.65,2.65,0,0,1,270,83.63a1.76,1.76,0,0,1,1.81,2.21A2.65,2.65,0,0,1,269.26,88,1.76,1.76,0,0,1,267.45,85.84Zm3.78,0a1.3,1.3,0,0,0-1.29-1.68,2,2,0,0,0-1.88,1.68,1.3,1.3,0,0,0,1.29,1.68A2,2,0,0,0,271.23,85.84Z" transform="translate(-106.07 -59.83)"/><path class="cls-2" d="M273.26,83.73h1.48a1,1,0,0,1,1.14,1.18A1.41,1.41,0,0,1,274.66,86l0.86,1.92H274.8l-0.75-1.85h-0.64l-0.32,1.85h-0.57Zm0.25,1.85h0.75a0.87,0.87,0,0,0,1-.68c0.1-.57-0.33-0.68-0.78-0.68h-0.75Z" transform="translate(-106.07 -59.83)"/><path class="cls-2" d="M277.13,83.73h0.57L277,87.94H276.4Z" transform="translate(-106.07 -59.83)"/><path class="cls-2" d="M278.39,85.84A2.65,2.65,0,0,1,281,83.63a1.76,1.76,0,0,1,1.81,2.21A2.65,2.65,0,0,1,280.2,88,1.76,1.76,0,0,1,278.39,85.84Zm3.78,0a1.3,1.3,0,0,0-1.29-1.68A2,2,0,0,0,279,85.84a1.3,1.3,0,0,0,1.29,1.68A2,2,0,0,0,282.17,85.84Z" transform="translate(-106.07 -59.83)"/><path class="cls-2" d="M283.75,87.06a0.86,0.86,0,0,0,.81.45,1,1,0,0,0,1-.7c0.17-1-2-.37-1.72-2a1.58,1.58,0,0,1,1.63-1.18,1.23,1.23,0,0,1,1.13.48l-0.54.42a0.72,0.72,0,0,0-.68-0.37,0.86,0.86,0,0,0-.93.64c-0.19,1.06,2,.43,1.73,1.94a1.64,1.64,0,0,1-1.69,1.3,1.35,1.35,0,0,1-1.24-.58Z" transform="translate(-106.07 -59.83)"/><rect class="cls-1" x="0.49" y="26.03" width="103.67" height="1"/></svg>