<svg id="Layer_1" data-name="Layer 1" xmlns="http://www.w3.org/2000/svg" viewBox="0 0 1061.92 569.02"><defs><style>.cls-1{fill:#bb141d;}.cls-2{fill:#0a1972;}.cls-3{fill:#fff;}</style></defs><title>logo-vertical-2</title><polygon class="cls-1" points="1031.65 235.98 1061.92 123.03 914.04 123.03 801.09 123.03 660.41 123.03 692.55 0 580.81 0 579.6 0 471.64 0 467.86 0 358.68 0 358.43 0.98 358.67 0 247.61 0 245.72 0 157.34 0 134.65 0 97.98 0 127.06 29.08 33.3 387.97 124.84 387.97 146.25 387.97 184.2 387.97 154.11 357.88 215.25 123.86 326.33 123.86 257.33 387.97 348.06 387.97 370.28 387.97 407.42 387.97 377.98 358.52 439.28 123.86 547.24 123.86 478.25 387.97 568.5 387.97 591.2 387.97 627.86 387.97 598.79 358.9 630.9 235.98 771.37 235.98 702.56 497.51 793.55 497.51 815.52 497.51 852.91 497.51 823.3 467.9 884.33 235.98 1031.65 235.98"/><path class="cls-2" d="M1130.86,660.67s-7.58,43.32-13,63.55c-5,18.84-18.92,28.74-36.69,28.76l-645,0,22.33-92.45H466c41.14,0.2,279.37.11,320.52,0.11h344.35Z" transform="translate(-429.04 -255.49)"/><path class="cls-3" d="M543.92,719.22c-1.4,8.12-9.19,14.77-17.31,14.77H496.25l5.17-10.83h26.82a5.15,5.15,0,0,0,4.84-4.1l0.49-3.2a3.31,3.31,0,0,0-3.37-4.1H514.87c-8.12,0-13.54-6.65-12.14-14.77l0.66-3.61c1.39-8.12,9.27-14.77,17.39-14.77H547l-5.25,10.91H519a5.14,5.14,0,0,0-4.84,4.1l-0.49,3.11a3.34,3.34,0,0,0,3.36,4.1h15.42c8.12,0,13.54,6.65,12.14,14.77Z" transform="translate(-429.04 -255.49)"/><path class="cls-3" d="M597.53,700.84l-2,10.91H567.84l-1.23,7.3a3.37,3.37,0,0,0,3.36,4.1h23.62L591.7,734H567.92c-8.13,0-13.62-6.65-12.23-14.77l4.6-25.84c1.39-8.12,9.27-14.77,17.39-14.77h23.79l-5.25,10.91H575.88a5.15,5.15,0,0,0-4.85,4.1l-2.21,12.71,6.48-5.5h22.23Z" transform="translate(-429.04 -255.49)"/><path class="cls-3" d="M639.83,734l-6.73-16.65h-9.6l5.25-10.91h11.73a5.06,5.06,0,0,0,4.84-4.1l1.48-8.69a3.31,3.31,0,0,0-3.37-4.1H624.15L616.36,734H605.53l9.76-55.38h30.35c8,0,13.45,6.48,12.14,14.52v0.25l-1.64,9.19v0.24A18.75,18.75,0,0,1,645.07,716l7.31,18H639.83Zm16.33-31.17v0Zm1.64-9.43v0Z" transform="translate(-429.04 -255.49)"/><path class="cls-3" d="M717.56,678.6L693,734H676.55l-5.09-55.38h11.24l4,44.06,19.61-44.06h11.24Z" transform="translate(-429.04 -255.49)"/><path class="cls-3" d="M720,734l9.77-55.38h10.83L730.81,734H720Z" transform="translate(-429.04 -255.49)"/><path class="cls-3" d="M784.34,723.15L782.46,734h-23c-8.12,0-13.62-6.65-12.23-14.77l4.6-25.84c1.4-8.12,9.27-14.77,17.39-14.77h23L787,689.52H767.36a5.14,5.14,0,0,0-4.84,4.1l-4.43,25.43a3.38,3.38,0,0,0,3.36,4.1h22.89Z" transform="translate(-429.04 -255.49)"/><path class="cls-3" d="M839.44,700.84l-2,10.91H809.74l-1.23,7.3a3.37,3.37,0,0,0,3.36,4.1H835.5L833.61,734H809.82c-8.12,0-13.62-6.65-12.22-14.77l4.59-25.84c1.4-8.12,9.27-14.77,17.39-14.77h23.79l-5.25,10.91H817.78a5.14,5.14,0,0,0-4.84,4.1l-2.22,12.71,6.48-5.5h22.23Z" transform="translate(-429.04 -255.49)"/><path class="cls-3" d="M890.1,734H879.19l-14.85-34.45L858.27,734H847.44l9.77-55.38H868l14.77,34.46,6.15-34.46h10.91l-9.27,52.34Z" transform="translate(-429.04 -255.49)"/><path class="cls-3" d="M951.92,689.52H936L928.21,734H917.38l6.81-39,6.4-5.41H909.26l2-10.91h42.66Z" transform="translate(-429.04 -255.49)"/><path class="cls-3" d="M990.19,734l-6.72-16.65h-9.6l5.25-10.91h11.73a5.07,5.07,0,0,0,4.84-4.1l1.48-8.69a3.31,3.31,0,0,0-3.36-4.1H974.53L966.73,734H955.9l9.76-55.38H996c8,0,13.45,6.48,12.14,14.52v0.25l-1.64,9.19v0.24A18.73,18.73,0,0,1,995.45,716l7.3,18H990.19Zm16.33-31.17v0Zm1.64-9.43v0Z" transform="translate(-429.04 -255.49)"/><path class="cls-3" d="M1066,693.38l-4.59,25.84c-1.4,8.12-9.19,14.77-17.31,14.77h-13.94c-8.12,0-13.62-6.65-12.22-14.77l4.59-25.84c1.4-8.12,9.27-14.77,17.39-14.77h13.95C1061.94,678.6,1067.35,685.25,1066,693.38Zm-11,.25a3.31,3.31,0,0,0-3.36-4.1h-13.54a5.15,5.15,0,0,0-4.84,4.1l-4.43,25.43a3.37,3.37,0,0,0,3.36,4.1h13.54a5.15,5.15,0,0,0,4.84-4.1Z" transform="translate(-429.04 -255.49)"/><path class="cls-3" d="M444.87,780.34H429l1.09-6.25h38.34l-1.09,6.25H451.54L444,823.26h-6.67Z" transform="translate(-429.04 -255.49)"/><path class="cls-3" d="M471,798.68c2.55-14.59,15.15-25.84,30.15-25.84s23.66,11.25,21.11,25.84-15.15,25.83-30.15,25.83S468.41,813.26,471,798.68Zm44.17,0c1.88-10.77-3.86-19.59-15.12-19.59s-20.08,8.82-22,19.59,3.86,19.58,15.11,19.58S513.26,809.44,515.14,798.68Z" transform="translate(-429.04 -255.49)"/><path class="cls-3" d="M538.88,774.09h17.29c12.57,0,14.44,7.57,13.36,13.75a16.48,16.48,0,0,1-14.36,13l10,22.43h-8.34l-8.71-21.67h-7.43l-3.79,21.67h-6.67Zm2.88,21.67h8.75c5.28,0,10.78-1.25,11.94-7.91s-3.89-7.92-9.17-7.92h-8.75Z" transform="translate(-429.04 -255.49)"/><path class="cls-3" d="M584.08,774.09h8.75l20,40.42H613l7.07-40.42h6.67l-8.61,49.17h-8.47l-20.29-40.42h-0.14l-7.07,40.42h-6.67Z" transform="translate(-429.04 -255.49)"/><path class="cls-3" d="M634.77,798.68c2.55-14.59,15.15-25.84,30.15-25.84s23.66,11.25,21.11,25.84-15.15,25.83-30.15,25.83S632.22,813.26,634.77,798.68Zm44.17,0c1.88-10.77-3.87-19.59-15.12-19.59s-20.09,8.82-22,19.59,3.87,19.58,15.12,19.58S677.06,809.44,678.95,798.68Z" transform="translate(-429.04 -255.49)"/><path class="cls-3" d="M697.33,813c1.73,3.61,5.54,5.28,9.5,5.28,4.37,0,10.28-2.78,11.22-8.19,2-11.32-23.48-4.31-20.13-23.48,1-5.77,7.27-13.75,19.08-13.75,5.35,0,10.29,1.11,13.18,5.62l-6.28,4.93c-1.22-2.57-4.18-4.31-8-4.31-7.36,0-10.36,4.44-10.9,7.5-2.18,12.43,23.36,5,20.26,22.71-1.66,9.52-10.3,15.21-19.74,15.21-6.32,0-12-2.15-14.51-6.8Z" transform="translate(-429.04 -255.49)"/><path class="cls-3" d="M772.82,802.29l-13.68-28.2h8.54l9.63,21.6,17.6-21.6H803l-23.55,28.2-3.67,21h-6.67Z" transform="translate(-429.04 -255.49)"/><path class="cls-3" d="M848.93,774.09h6l12.44,49.17h-7.78l-2.8-12.15h-23.4l-7,12.15h-7.78Zm6.49,31.19L850.2,782.7h-0.14L836.8,805.27h18.61Z" transform="translate(-429.04 -255.49)"/><path class="cls-3" d="M917.55,784.72c-2.15-3.62-6.38-5.63-10.89-5.63-11,0-19.88,8.82-21.84,20-1.81,10.34,3.52,19.17,15,19.17a18.39,18.39,0,0,0,14-6.6l4.88,4.24a27.78,27.78,0,0,1-20.12,8.61c-15.63,0-23-13.05-20.83-25.42,2.67-15.28,15.08-26.26,30.22-26.26,6.46,0,12.84,2.43,15.89,7.64Z" transform="translate(-429.04 -255.49)"/><path class="cls-3" d="M969.22,784.72c-2.15-3.62-6.38-5.63-10.89-5.63-11,0-19.88,8.82-21.84,20-1.81,10.34,3.52,19.17,15,19.17a18.39,18.39,0,0,0,14-6.6l4.89,4.24a27.79,27.79,0,0,1-20.12,8.61c-15.63,0-23-13.05-20.84-25.42,2.67-15.28,15.08-26.26,30.23-26.26,6.46,0,12.84,2.43,15.89,7.64Z" transform="translate(-429.04 -255.49)"/><path class="cls-3" d="M988.5,774.09h31.74l-1.09,6.25H994.07L991.51,795h23.34l-1.09,6.24H990.41L987.65,817H1014l-1.09,6.25h-33Z" transform="translate(-429.04 -255.49)"/><path class="cls-3" d="M1028.35,813c1.73,3.61,5.54,5.28,9.49,5.28,4.38,0,10.28-2.78,11.23-8.19,2-11.32-23.49-4.31-20.13-23.48,1-5.77,7.27-13.75,19.07-13.75,5.35,0,10.29,1.11,13.18,5.62l-6.28,4.93c-1.21-2.57-4.18-4.31-8-4.31-7.36,0-10.36,4.44-10.9,7.5-2.18,12.43,23.36,5,20.27,22.71-1.67,9.52-10.3,15.21-19.74,15.21-6.32,0-12-2.15-14.51-6.8Z" transform="translate(-429.04 -255.49)"/><path class="cls-3" d="M1067.73,798.68c2.55-14.59,15.15-25.84,30.15-25.84s23.66,11.25,21.11,25.84-15.14,25.83-30.15,25.83S1065.18,813.26,1067.73,798.68Zm44.17,0c1.88-10.77-3.86-19.59-15.12-19.59s-20.09,8.82-22,19.59,3.86,19.58,15.12,19.58S1110,809.44,1111.9,798.68Z" transform="translate(-429.04 -255.49)"/><path class="cls-3" d="M1135.64,774.09h17.3c12.57,0,14.44,7.57,13.36,13.75a16.48,16.48,0,0,1-14.36,13l10,22.43h-8.33l-8.71-21.67h-7.43l-3.79,21.67H1127Zm2.88,21.67h8.75c5.28,0,10.77-1.25,11.94-7.91s-3.89-7.92-9.17-7.92h-8.75Z" transform="translate(-429.04 -255.49)"/><path class="cls-3" d="M1180.84,774.09h6.67l-8.6,49.17h-6.67Z" transform="translate(-429.04 -255.49)"/><path class="cls-3" d="M1195.57,798.68c2.55-14.59,15.15-25.84,30.15-25.84s23.66,11.25,21.1,25.84-15.15,25.83-30.15,25.83S1193,813.26,1195.57,798.68Zm44.17,0c1.88-10.77-3.86-19.59-15.12-19.59s-20.09,8.82-22,19.59,3.87,19.58,15.12,19.58S1237.86,809.44,1239.74,798.68Z" transform="translate(-429.04 -255.49)"/><path class="cls-3" d="M1258.13,813c1.73,3.61,5.54,5.28,9.49,5.28,4.38,0,10.28-2.78,11.23-8.19,2-11.32-23.48-4.31-20.13-23.48,1-5.77,7.27-13.75,19.07-13.75,5.35,0,10.29,1.11,13.19,5.62l-6.29,4.93c-1.21-2.57-4.18-4.31-8-4.31-7.36,0-10.36,4.44-10.9,7.5-2.18,12.43,23.36,5,20.26,22.71-1.66,9.52-10.3,15.21-19.74,15.21-6.32,0-12-2.15-14.51-6.8Z" transform="translate(-429.04 -255.49)"/></svg>