<?xml version="1.0" encoding="utf-8"?>
<!-- Generator: Adobe Illustrator 16.0.0, SVG Export Plug-In . SVG Version: 6.00 Build 0)  -->
<!DOCTYPE svg PUBLIC "-//W3C//DTD SVG 1.1//EN" "http://www.w3.org/Graphics/SVG/1.1/DTD/svg11.dtd">
<svg version="1.1" id="Layer_1" xmlns="http://www.w3.org/2000/svg" xmlns:xlink="http://www.w3.org/1999/xlink" x="0px" y="0px"
	 width="1920px" height="1080px" viewBox="0 0 1920 1080" enable-background="new 0 0 1920 1080" xml:space="preserve">
<g>
	<g>
		<polygon fill="#BB141D" points="1460.691,491.467 1490.96,378.515 1343.085,378.515 1230.129,378.515 1089.453,378.515 
			1121.592,255.49 1009.854,255.49 1008.636,255.49 900.676,255.49 896.901,255.49 787.721,255.49 787.465,256.474 787.713,255.49 
			676.646,255.49 674.761,255.49 586.382,255.49 563.69,255.49 527.022,255.49 556.097,284.566 462.341,643.459 553.878,643.459 
			575.293,643.459 613.237,643.459 583.153,613.375 644.288,379.35 755.366,379.35 686.371,643.459 777.104,643.459 
			799.323,643.459 836.462,643.459 807.019,614.011 868.318,379.35 976.281,379.35 907.287,643.459 997.539,643.459 
			1020.239,643.459 1056.898,643.459 1027.832,614.39 1059.942,491.467 1200.414,491.467 1131.604,752.997 1222.591,752.997 
			1244.556,752.997 1281.95,752.997 1252.345,723.395 1313.366,491.467 		"/>
		<path fill-rule="evenodd" clip-rule="evenodd" fill="#0A1972" d="M1130.857,660.671c0,0-7.576,43.319-12.993,63.554
			c-5.04,18.839-18.921,28.743-36.691,28.757l-644.976,0.032l22.331-92.451h7.455c41.145,0.195,279.375,0.108,320.521,0.108
			c82.985,0,250.438,0,333.428,0C1122.911,660.671,1125.896,660.671,1130.857,660.671z"/>
		<g>
			<path fill="#FFFFFF" d="M543.917,719.215c-1.398,8.121-9.191,14.768-17.311,14.768h-30.355l5.169-10.83h26.824
				c2.302,0,4.435-1.887,4.839-4.101l0.495-3.201c0.409-2.296-1.068-4.101-3.366-4.101h-15.338c-8.119,0-13.536-6.646-12.141-14.766
				l0.656-3.609c1.395-8.123,9.27-14.77,17.393-14.77h26.25l-5.252,10.914h-22.806c-2.215,0-4.427,1.803-4.839,4.104l-0.491,3.114
				c-0.413,2.298,1.151,4.101,3.362,4.101h15.421c8.123,0,13.54,6.648,12.141,14.77L543.917,719.215z"/>
			<path fill="#FFFFFF" d="M597.529,700.838l-1.968,10.912h-27.724l-1.233,7.302c-0.412,2.214,1.147,4.101,3.362,4.101h23.623
				l-1.885,10.83H567.92c-8.127,0-13.622-6.646-12.228-14.768l4.596-25.84c1.394-8.123,9.27-14.77,17.389-14.77h23.788
				l-5.248,10.914h-20.339c-2.219,0-4.435,1.803-4.847,4.104l-2.211,12.713l6.481-5.498H597.529z"/>
			<path fill="#FFFFFF" d="M639.825,733.982l-6.729-16.654h-9.596l5.251-10.912h11.733c2.294,0,4.427-1.803,4.835-4.101l1.477-8.692
				c0.409-2.301-1.068-4.104-3.366-4.104h-19.278l-7.789,44.463h-10.83l9.761-55.377h30.355c8.037,0,13.453,6.481,12.142,14.522
				c0,0.082,0,0.165,0,0.247l-1.638,9.188c0,0.08,0,0.163,0,0.244c-1.151,5.828-5.585,10.911-11.081,13.209l7.306,17.967H639.825z
				 M656.154,702.807v-0.244C656.154,702.643,656.154,702.726,656.154,702.807z M657.792,693.375v-0.247
				C657.792,693.21,657.792,693.293,657.792,693.375z"/>
			<path fill="#FFFFFF" d="M717.56,678.605l-24.608,55.377h-16.407l-5.091-55.377h11.238l4.021,44.057l19.608-44.057H717.56z"/>
			<path fill="#FFFFFF" d="M719.982,733.982l9.766-55.377h10.829l-9.765,55.377H719.982z"/>
			<path fill="#FFFFFF" d="M784.342,723.152l-1.885,10.83h-23.049c-8.123,0-13.623-6.646-12.229-14.768l4.596-25.84
				c1.395-8.123,9.271-14.77,17.394-14.77h23.049l-5.248,10.914h-19.608c-2.211,0-4.43,1.803-4.839,4.104l-4.431,25.429
				c-0.408,2.214,1.151,4.101,3.362,4.101H784.342z"/>
			<path fill="#FFFFFF" d="M839.436,700.838l-1.968,10.912H809.74l-1.229,7.302c-0.412,2.214,1.147,4.101,3.362,4.101H835.5
				l-1.886,10.83h-23.791c-8.123,0-13.622-6.646-12.224-14.768l4.592-25.84c1.397-8.123,9.273-14.77,17.393-14.77h23.787
				l-5.247,10.914h-20.343c-2.22,0-4.431,1.803-4.84,4.104l-2.215,12.713l6.477-5.498H839.436z"/>
			<path fill="#FFFFFF" d="M890.099,733.982h-10.912l-14.848-34.454l-6.068,34.454h-10.834l9.766-55.377h10.829l14.765,34.457
				l6.151-34.457h10.912l-9.27,52.34L890.099,733.982z"/>
			<path fill="#FFFFFF" d="M951.916,689.52h-15.912l-7.793,44.463h-10.829l6.808-39.05l6.402-5.413h-21.333l1.972-10.914h42.658
				L951.916,689.52z"/>
			<path fill="#FFFFFF" d="M990.194,733.982l-6.725-16.654h-9.601l5.252-10.912h11.729c2.299,0,4.432-1.803,4.84-4.101l1.477-8.692
				c0.413-2.301-1.064-4.104-3.362-4.104h-19.278l-7.793,44.463h-10.829l9.761-55.377h30.355c8.04,0,13.449,6.481,12.141,14.522
				c0,0.082,0,0.165,0,0.247l-1.642,9.188c0,0.08,0,0.163,0,0.244c-1.146,5.828-5.577,10.911-11.073,13.209l7.303,17.967H990.194z
				 M1006.519,702.807v-0.244C1006.519,702.643,1006.519,702.726,1006.519,702.807z M1008.16,693.375v-0.247
				C1008.16,693.21,1008.16,693.293,1008.16,693.375z"/>
			<path fill="#FFFFFF" d="M1065.956,693.375l-4.592,25.84c-1.395,8.121-9.188,14.768-17.311,14.768h-13.944
				c-8.122,0-13.617-6.646-12.224-14.768l4.592-25.84c1.398-8.123,9.274-14.77,17.394-14.77h13.948
				C1061.938,678.605,1067.351,685.252,1065.956,693.375z M1054.966,693.623c0.408-2.301-1.068-4.104-3.362-4.104h-13.535
				c-2.216,0-4.431,1.803-4.844,4.104l-4.427,25.429c-0.412,2.214,1.147,4.101,3.362,4.101h13.536c2.298,0,4.431-1.887,4.839-4.101
				L1054.966,693.623z"/>
		</g>
	</g>
	<g>
		<path fill="#0A1972" d="M444.874,780.34H429.04l1.092-6.252h38.341l-1.094,6.252h-15.836l-7.51,42.921h-6.67L444.874,780.34z"/>
		<path fill="#0A1972" d="M470.967,798.676c2.553-14.587,15.146-25.838,30.151-25.838c15.001,0,23.658,11.251,21.105,25.838
			c-2.553,14.586-15.146,25.834-30.147,25.834C477.071,824.51,468.414,813.262,470.967,798.676z M515.141,798.676
			c1.883-10.767-3.865-19.589-15.119-19.589c-11.25,0-20.085,8.822-21.969,19.589c-1.883,10.762,3.865,19.584,15.115,19.584
			C504.419,818.26,513.257,809.438,515.141,798.676z"/>
		<path fill="#0A1972" d="M538.875,774.088h17.295c12.571,0,14.441,7.568,13.359,13.754c-1.094,6.252-6.78,12.153-14.358,12.988
			l10.036,22.431h-8.335l-8.708-21.667h-7.432l-3.793,21.667h-6.667L538.875,774.088z M541.752,795.757h8.75
			c5.279,0,10.776-1.249,11.943-7.915c1.167-6.669-3.893-7.922-9.172-7.922h-8.75L541.752,795.757z"/>
		<path fill="#0A1972" d="M584.08,774.088h8.751l20.013,40.423h0.142l7.072-40.423h6.667l-8.606,49.173h-8.473l-20.292-40.421
			h-0.138l-7.074,40.421h-6.668L584.08,774.088z"/>
		<path fill="#0A1972" d="M634.774,798.676c2.553-14.587,15.146-25.838,30.151-25.838c15.001,0,23.658,11.251,21.106,25.838
			c-2.553,14.586-15.147,25.834-30.148,25.834C640.88,824.51,632.221,813.262,634.774,798.676z M678.947,798.676
			c1.884-10.767-3.866-19.589-15.116-19.589c-11.254,0-20.089,8.822-21.973,19.589c-1.883,10.762,3.867,19.584,15.119,19.584
			C668.227,818.26,677.064,809.438,678.947,798.676z"/>
		<path fill="#0A1972" d="M697.334,812.98c1.73,3.612,5.537,5.279,9.496,5.279c4.374,0,10.277-2.778,11.225-8.193
			c1.983-11.322-23.485-4.309-20.131-23.478c1.01-5.766,7.271-13.751,19.078-13.751c5.346,0,10.291,1.111,13.184,5.624l-6.282,4.934
			c-1.216-2.572-4.176-4.309-7.995-4.309c-7.363,0-10.362,4.444-10.898,7.502c-2.176,12.433,23.363,5.001,20.264,22.712
			c-1.663,9.518-10.299,15.209-19.745,15.209c-6.32,0-11.986-2.152-14.506-6.8L697.334,812.98z"/>
		<path fill="#0A1972" d="M772.815,802.287l-13.679-28.199h8.541l9.626,21.603l17.601-21.603h8.127l-23.548,28.199l-3.671,20.974
			h-6.667L772.815,802.287z"/>
		<path fill="#0A1972" d="M848.928,774.088h6.043l12.439,49.173h-7.781l-2.805-12.153H833.42l-6.989,12.153h-7.777L848.928,774.088z
			 M855.414,805.274l-5.216-22.578h-0.14l-13.255,22.578H855.414z"/>
		<path fill="#0A1972" d="M917.553,784.716c-2.146-3.616-6.379-5.629-10.893-5.629c-11.043,0-19.877,8.822-21.835,20.007
			c-1.809,10.344,3.521,19.166,14.981,19.166c5.624,0,10.369-2.502,14.005-6.601l4.882,4.24c-1.811,2.015-8.867,8.61-20.12,8.61
			c-15.628,0-22.995-13.055-20.832-25.416c2.673-15.281,15.081-26.256,30.222-26.256c6.461,0,12.84,2.431,15.889,7.638
			L917.553,784.716z"/>
		<path fill="#0A1972" d="M969.215,784.716c-2.145-3.616-6.379-5.629-10.893-5.629c-11.041,0-19.877,8.822-21.835,20.007
			c-1.811,10.344,3.521,19.166,14.981,19.166c5.625,0,10.369-2.502,14.003-6.601l4.887,4.24c-1.813,2.015-8.87,8.61-20.121,8.61
			c-15.628,0-22.998-13.055-20.836-25.416c2.675-15.281,15.083-26.256,30.226-26.256c6.457,0,12.838,2.431,15.887,7.638
			L969.215,784.716z"/>
		<path fill="#0A1972" d="M988.497,774.088h31.74l-1.095,6.252h-25.071l-2.565,14.655h23.336l-1.092,6.245h-23.338l-2.76,15.771
			h26.321l-1.092,6.25h-32.991L988.497,774.088z"/>
		<path fill="#0A1972" d="M1028.354,812.98c1.729,3.612,5.536,5.279,9.495,5.279c4.376,0,10.279-2.778,11.229-8.193
			c1.979-11.322-23.487-4.309-20.133-23.478c1.008-5.766,7.267-13.751,19.074-13.751c5.348,0,10.291,1.111,13.184,5.624
			l-6.282,4.934c-1.214-2.572-4.176-4.309-7.995-4.309c-7.363,0-10.362,4.444-10.896,7.502
			c-2.176,12.433,23.363,5.001,20.265,22.712c-1.666,9.518-10.304,15.209-19.744,15.209c-6.322,0-11.99-2.152-14.512-6.8
			L1028.354,812.98z"/>
		<path fill="#0A1972" d="M1067.729,798.676c2.554-14.587,15.148-25.838,30.149-25.838c15.003,0,23.66,11.251,21.106,25.838
			c-2.553,14.586-15.144,25.834-30.148,25.834C1073.836,824.51,1065.177,813.262,1067.729,798.676z M1111.901,798.676
			c1.884-10.767-3.865-19.589-15.116-19.589c-11.252,0-20.086,8.822-21.972,19.589c-1.881,10.762,3.865,19.584,15.117,19.584
			S1110.019,809.438,1111.901,798.676z"/>
		<path fill="#0A1972" d="M1135.638,774.088h17.295c12.569,0,14.441,7.568,13.359,13.754c-1.094,6.252-6.78,12.153-14.356,12.988
			l10.033,22.431h-8.333l-8.71-21.667h-7.434l-3.793,21.667h-6.665L1135.638,774.088z M1138.514,795.757h8.751
			c5.279,0,10.774-1.249,11.943-7.915c1.166-6.669-3.891-7.922-9.17-7.922h-8.754L1138.514,795.757z"/>
		<path fill="#0A1972" d="M1180.845,774.088h6.666l-8.604,49.173h-6.668L1180.845,774.088z"/>
		<path fill="#0A1972" d="M1195.568,798.676c2.554-14.587,15.146-25.838,30.149-25.838c15.001,0,23.658,11.251,21.104,25.838
			c-2.553,14.586-15.146,25.834-30.146,25.834S1193.016,813.262,1195.568,798.676z M1239.74,798.676
			c1.884-10.767-3.865-19.589-15.118-19.589c-11.25,0-20.086,8.822-21.972,19.589c-1.883,10.762,3.867,19.584,15.117,19.584
			C1229.021,818.26,1237.857,809.438,1239.74,798.676z"/>
		<path fill="#0A1972" d="M1258.129,812.98c1.729,3.612,5.537,5.279,9.492,5.279c4.378,0,10.281-2.778,11.229-8.193
			c1.982-11.322-23.484-4.309-20.13-23.478c1.009-5.766,7.267-13.751,19.073-13.751c5.351,0,10.292,1.111,13.187,5.624l-6.285,4.934
			c-1.213-2.572-4.175-4.309-7.995-4.309c-7.362,0-10.363,4.444-10.897,7.502c-2.177,12.433,23.363,5.001,20.264,22.712
			c-1.663,9.518-10.299,15.209-19.743,15.209c-6.32,0-11.988-2.152-14.511-6.8L1258.129,812.98z"/>
	</g>
</g>
</svg>
