<?xml version="1.0" encoding="utf-8"?>
<!-- Generator: Adobe Illustrator 16.0.0, SVG Export Plug-In . SVG Version: 6.00 Build 0)  -->
<!DOCTYPE svg PUBLIC "-//W3C//DTD SVG 1.1//EN" "http://www.w3.org/Graphics/SVG/1.1/DTD/svg11.dtd">
<svg version="1.1" id="Layer_1" xmlns="http://www.w3.org/2000/svg" xmlns:xlink="http://www.w3.org/1999/xlink" x="0px" y="0px"
	 width="68px" height="16px" viewBox="0 0 68 16" enable-background="new 0 0 68 16" xml:space="preserve">
<g>
	<g>
		<path fill="#4D4D4D" d="M4.852,12.809L1.945,5.215H1.898C1.953,5.816,1.98,6.531,1.98,7.359v5.449h-0.92V4.242h1.5l2.713,7.066
			H5.32l2.736-7.066h1.488v8.566H8.549v-5.52c0-0.633,0.027-1.32,0.082-2.062H8.584l-2.93,7.582H4.852z"/>
		<path fill="#4D4D4D" d="M15.697,12.809l-0.193-0.914h-0.047c-0.32,0.402-0.64,0.674-0.958,0.816s-0.716,0.215-1.192,0.215
			c-0.637,0-1.136-0.164-1.497-0.492s-0.542-0.795-0.542-1.4c0-1.297,1.037-1.977,3.111-2.039l1.09-0.035V8.561
			c0-0.504-0.108-0.876-0.325-1.116s-0.563-0.36-1.04-0.36c-0.535,0-1.141,0.164-1.816,0.492l-0.299-0.744
			c0.316-0.172,0.663-0.307,1.04-0.404s0.755-0.146,1.134-0.146c0.766,0,1.333,0.17,1.702,0.51s0.554,0.885,0.554,1.635v4.383
			H15.697z M13.5,12.123c0.605,0,1.081-0.166,1.427-0.498s0.519-0.797,0.519-1.395V9.65l-0.973,0.041
			c-0.773,0.027-1.331,0.147-1.673,0.36s-0.513,0.544-0.513,0.993c0,0.352,0.106,0.619,0.319,0.803S13.117,12.123,13.5,12.123z"/>
		<path fill="#4D4D4D" d="M22.793,11.947H22.74c-0.449,0.652-1.121,0.979-2.016,0.979c-0.84,0-1.493-0.287-1.96-0.861
			s-0.7-1.391-0.7-2.449s0.234-1.881,0.703-2.467s1.121-0.879,1.957-0.879c0.871,0,1.539,0.316,2.004,0.949h0.076l-0.041-0.463
			L22.74,6.305V3.691h0.973v9.117h-0.791L22.793,11.947z M20.848,12.111c0.664,0,1.146-0.182,1.444-0.543s0.448-0.943,0.448-1.748
			V9.615c0-0.91-0.151-1.56-0.454-1.948s-0.786-0.583-1.45-0.583c-0.57,0-1.007,0.222-1.31,0.665s-0.454,1.069-0.454,1.878
			c0,0.82,0.15,1.439,0.451,1.857S20.266,12.111,20.848,12.111z"/>
		<path fill="#4D4D4D" d="M28.488,12.926c-0.949,0-1.698-0.289-2.247-0.867s-0.823-1.381-0.823-2.408
			c0-1.035,0.255-1.857,0.765-2.467s1.194-0.914,2.054-0.914c0.805,0,1.441,0.265,1.91,0.794s0.703,1.228,0.703,2.095v0.615h-4.424
			c0.02,0.754,0.21,1.326,0.571,1.717s0.87,0.586,1.526,0.586c0.691,0,1.375-0.145,2.051-0.434v0.867
			c-0.344,0.148-0.669,0.254-0.976,0.318S28.922,12.926,28.488,12.926z M28.225,7.084c-0.516,0-0.927,0.168-1.233,0.504
			s-0.487,0.801-0.542,1.395h3.357c0-0.613-0.137-1.083-0.41-1.409S28.732,7.084,28.225,7.084z"/>
		<path fill="#4D4D4D" d="M38.613,6.281c0.844,0,1.498,0.288,1.965,0.864s0.701,1.392,0.701,2.446s-0.236,1.873-0.707,2.457
			s-1.123,0.877-1.959,0.877c-0.418,0-0.801-0.078-1.146-0.232s-0.635-0.391-0.869-0.711h-0.07l-0.205,0.826h-0.697V3.691h0.973
			v2.215c0,0.496-0.016,0.941-0.047,1.336h0.047C37.051,6.602,37.723,6.281,38.613,6.281z M38.473,7.096
			c-0.664,0-1.143,0.19-1.436,0.571s-0.439,1.022-0.439,1.925s0.15,1.547,0.451,1.936s0.783,0.584,1.447,0.584
			c0.598,0,1.043-0.219,1.336-0.654s0.439-1.061,0.439-1.877c0-0.836-0.146-1.459-0.439-1.869S39.086,7.096,38.473,7.096z"/>
		<path fill="#4D4D4D" d="M41.959,6.387h1.043l1.406,3.662c0.309,0.836,0.5,1.439,0.574,1.811h0.047
			c0.051-0.199,0.156-0.541,0.318-1.023c0.162-0.481,0.693-1.965,1.592-4.449h1.043l-2.76,7.312
			c-0.273,0.723-0.594,1.234-0.959,1.537s-0.812,0.455-1.344,0.455c-0.297,0-0.59-0.033-0.879-0.1v-0.779
			c0.215,0.047,0.455,0.07,0.721,0.07c0.668,0,1.145-0.375,1.43-1.125l0.357-0.914L41.959,6.387z"/>
		<path fill="#4D4D4D" d="M48.885,7.014c0-0.527,0.23-0.791,0.691-0.791c0.48,0,0.721,0.264,0.721,0.791
			c0,0.254-0.064,0.449-0.193,0.586s-0.305,0.205-0.527,0.205c-0.199,0-0.365-0.062-0.496-0.185S48.885,7.295,48.885,7.014z
			 M48.885,12.188c0-0.262,0.059-0.461,0.178-0.596s0.291-0.201,0.514-0.201c0.227,0,0.402,0.066,0.529,0.201
			s0.191,0.334,0.191,0.596c0,0.254-0.064,0.449-0.193,0.586s-0.305,0.205-0.527,0.205c-0.199,0-0.365-0.062-0.496-0.186
			S48.885,12.469,48.885,12.188z"/>
	</g>
	<polygon fill="#00A8CD" points="66.939,7.076 66.939,0.309 62.793,3.691 	"/>
	<polygon fill="#00A8CD" points="62.795,11.926 66.939,15.309 66.939,8.543 	"/>
	<polygon fill="#00A8CD" points="57.75,0.309 66.939,7.81 57.75,15.309 	"/>
</g>
</svg>
