<svg id="Layer_1" data-name="Layer 1" xmlns="http://www.w3.org/2000/svg" viewBox="0 0 80.09 22.8"><defs><style>.cls-1{fill:#fff;}</style></defs><title>menu-btn</title><rect class="cls-1" x="45.09" width="35" height="4"/><rect class="cls-1" x="45.09" y="9.4" width="35" height="4"/><rect class="cls-1" x="45.09" y="18.8" width="35" height="4"/><path class="cls-1" d="M1264.54,54l-2.06-6.72h-0.05q0.11,2.05.11,2.74v4h-1.62V45.47h2.47l2,6.55h0l2.15-6.55h2.47V54h-1.69V50q0-.29,0-0.66t0.08-2h-0.05L1266.2,54h-1.66Z" transform="translate(-1260.91 -38.6)"/><path class="cls-1" d="M1277.16,54h-4.93V45.47h4.93V47H1274v1.88h2.9v1.49H1274v2.21h3.12V54Z" transform="translate(-1260.91 -38.6)"/><path class="cls-1" d="M1286.55,54h-2.31l-3.73-6.48h-0.05q0.11,1.72.11,2.45v4h-1.62V45.47h2.29l3.72,6.42h0q-0.09-1.67-.09-2.36V45.47h1.63V54Z" transform="translate(-1260.91 -38.6)"/><path class="cls-1" d="M1295.68,45.47V51a3.2,3.2,0,0,1-.42,1.66,2.76,2.76,0,0,1-1.23,1.1,4.39,4.39,0,0,1-1.9.38,3.64,3.64,0,0,1-2.57-.85,3,3,0,0,1-.91-2.32V45.47h1.81v5.24a2.2,2.2,0,0,0,.4,1.45,1.66,1.66,0,0,0,1.32.46,1.62,1.62,0,0,0,1.29-.47,2.21,2.21,0,0,0,.4-1.46V45.47h1.81Zm-4.52-.69V44.62a16.5,16.5,0,0,0,1.38-1.76h2V43q-0.3.3-1,.91t-1.15.89h-1.19Z" transform="translate(-1260.91 -38.6)"/></svg>