<svg id="Layer_1" data-name="Layer 1" xmlns="http://www.w3.org/2000/svg" viewBox="0 0 103 103"><defs><style>.cls-1{fill:#bb141d;}</style></defs><title>MT_Engrane</title><path class="cls-1" d="M75,127.12a51.5,51.5,0,1,1,51.5-51.5A51.56,51.56,0,0,1,75,127.12Zm0-100a48.5,48.5,0,1,0,48.5,48.5A48.55,48.55,0,0,0,75,27.12Z" transform="translate(-23.5 -24.12)"/><path class="cls-1" d="M104.17,68.18l-4.56-.77A25.79,25.79,0,0,0,97.78,63l2.69-3.76A4,4,0,0,0,100,54l-4-4a4,4,0,0,0-2.84-1.18,3.94,3.94,0,0,0-2.32.75l-3.77,2.69a25.48,25.48,0,0,0-4.59-1.89L81.7,45.85a4,4,0,0,0-4-3.35H72a4,4,0,0,0-4,3.35l-0.79,4.62a25.1,25.1,0,0,0-4.41,1.86l-3.73-2.69a4,4,0,0,0-5.17.44l-4.06,4a4,4,0,0,0-.43,5.17l2.72,3.82a25.11,25.11,0,0,0-1.81,4.44l-4.51.76a4,4,0,0,0-3.35,4V78a4,4,0,0,0,3.35,4l4.62,0.79a25.14,25.14,0,0,0,1.86,4.41l-2.68,3.72a4,4,0,0,0,.43,5.17l4,4a4,4,0,0,0,5.16.44l3.82-2.72a25.68,25.68,0,0,0,4.29,1.76l0.76,4.56a4,4,0,0,0,4,3.35h5.73a4,4,0,0,0,4-3.35l0.77-4.56A25.72,25.72,0,0,0,87,97.75l3.76,2.69A4,4,0,0,0,96,100l4-4a4,4,0,0,0,.43-5.17L97.75,87a25.5,25.5,0,0,0,1.83-4.43l4.56-.76a4,4,0,0,0,3.35-4V72.14a4,4,0,0,0-3.33-4h0Zm-0.31,9.68a0.35,0.35,0,0,1-.3.35l-5.7,1a1.82,1.82,0,0,0-1.47,1.34A21.75,21.75,0,0,1,94,86.2a1.84,1.84,0,0,0,.08,2l3.35,4.73a0.37,0.37,0,0,1,0,.46l-4,4a0.35,0.35,0,0,1-.26.11,0.34,0.34,0,0,1-.2-0.07L88.2,94.11a1.84,1.84,0,0,0-2-.08,21.74,21.74,0,0,1-5.69,2.36,1.8,1.8,0,0,0-1.34,1.47l-1,5.7a0.35,0.35,0,0,1-.35.3H72.14a0.35,0.35,0,0,1-.35-0.3l-1-5.7a1.82,1.82,0,0,0-1.34-1.47,22.58,22.58,0,0,1-5.57-2.28A1.88,1.88,0,0,0,63,93.87a1.79,1.79,0,0,0-1.06.34l-4.75,3.38a0.4,0.4,0,0,1-.2.07,0.36,0.36,0,0,1-.26-0.11l-4-4a0.37,0.37,0,0,1,0-.46L56,88.35a1.86,1.86,0,0,0,.08-2,21.51,21.51,0,0,1-2.39-5.68,1.86,1.86,0,0,0-1.47-1.34l-5.74-1a0.35,0.35,0,0,1-.3-0.35V72.28a0.35,0.35,0,0,1,.3-0.35L52.13,71a1.84,1.84,0,0,0,1.48-1.36,21.7,21.7,0,0,1,2.32-5.7,1.81,1.81,0,0,0-.1-2l-3.38-4.75a0.37,0.37,0,0,1,0-.46l4-4a0.34,0.34,0,0,1,.26-0.11,0.34,0.34,0,0,1,.2.07L61.69,56a1.86,1.86,0,0,0,2,.08,21.54,21.54,0,0,1,5.68-2.39,1.86,1.86,0,0,0,1.34-1.47l1-5.74a0.35,0.35,0,0,1,.35-0.3h5.72a0.35,0.35,0,0,1,.35.3l1,5.66a1.84,1.84,0,0,0,1.36,1.48A22,22,0,0,1,86.25,56a1.83,1.83,0,0,0,2-.08l4.68-3.37a0.4,0.4,0,0,1,.2-0.07,0.36,0.36,0,0,1,.26.11l4,4a0.37,0.37,0,0,1,0,.46l-3.35,4.71a1.84,1.84,0,0,0-.08,2,21.74,21.74,0,0,1,2.36,5.69,1.8,1.8,0,0,0,1.47,1.34l5.7,1a0.35,0.35,0,0,1,.3.35v5.72h0Zm0,0" transform="translate(-23.5 -24.12)"/><path class="cls-1" d="M75,61A14,14,0,1,0,89,75,14,14,0,0,0,75,61h0Zm0,24.39A10.36,10.36,0,1,1,85.37,75,10.37,10.37,0,0,1,75,85.35h0Zm0,0" transform="translate(-23.5 -24.12)"/></svg>