<?xml version="1.0" encoding="utf-8"?>
<!-- Generator: Adobe Illustrator 16.0.0, SVG Export Plug-In . SVG Version: 6.00 Build 0)  -->
<!DOCTYPE svg PUBLIC "-//W3C//DTD SVG 1.1//EN" "http://www.w3.org/Graphics/SVG/1.1/DTD/svg11.dtd">
<svg version="1.1" id="Layer_1" xmlns="http://www.w3.org/2000/svg" xmlns:xlink="http://www.w3.org/1999/xlink" x="0px" y="0px"
	 width="1920px" height="1080px" viewBox="0 0 1920 1080" enable-background="new 0 0 1920 1080" xml:space="preserve">
<g>
	<g>
		<polygon fill="#BB141D" points="1472.447,490.328 1503.427,374.724 1352.079,374.724 1236.471,374.724 1092.493,374.724 
			1125.386,248.81 1011.024,248.81 1009.777,248.81 899.283,248.81 895.42,248.81 783.675,248.81 783.414,249.817 783.667,248.81 
			669.993,248.81 668.063,248.81 577.609,248.81 554.385,248.81 516.856,248.81 546.614,278.569 450.656,645.889 544.343,645.889 
			566.261,645.889 605.095,645.889 574.305,615.098 636.875,375.578 750.562,375.578 679.946,645.889 772.809,645.889 
			795.551,645.889 833.562,645.889 803.426,615.748 866.165,375.578 976.663,375.578 906.049,645.889 998.421,645.889 
			1021.653,645.889 1059.174,645.889 1029.425,616.137 1062.289,490.328 1206.059,490.328 1135.633,757.998 1228.757,757.998 
			1251.237,757.998 1289.509,757.998 1259.209,727.701 1321.662,490.328 		"/>
		<g>
			<path fill-rule="evenodd" clip-rule="evenodd" fill="#FFFFFF" d="M1053.754,693.031h-13.853c-2.268,0-4.535,1.844-4.957,4.199
				l-4.531,26.025c-0.422,2.266,1.174,4.197,3.441,4.197h13.854c2.352,0,4.535-1.932,4.953-4.197l4.534-26.025
				C1057.613,694.875,1056.103,693.031,1053.754,693.031z"/>
			<path fill-rule="evenodd" clip-rule="evenodd" fill="#FFFFFF" d="M1123.686,663.504c-84.938,0-256.322,0-341.257,0
				c-42.111,0-285.935,0.09-328.046-0.109h-7.63l-22.854,94.621l660.12-0.033c18.187-0.014,32.395-10.15,37.552-29.432
				c5.544-20.709,13.299-65.047,13.299-65.047C1129.792,663.504,1126.736,663.504,1123.686,663.504z M506.605,704.615h15.783
				c8.313,0,13.857,6.805,12.426,15.115l-0.667,3.693c-1.432,8.311-9.407,15.113-17.717,15.113h-31.068l5.291-11.084h27.453
				c2.356,0,4.539-1.932,4.953-4.197l0.507-3.275c0.418-2.35-1.094-4.197-3.445-4.197h-15.699c-8.31,0-13.854-6.803-12.426-15.111
				l0.671-3.695c1.428-8.314,9.487-15.115,17.802-15.115h26.866l-5.375,11.17h-23.341c-2.268,0-4.53,1.844-4.953,4.199l-0.502,3.188
				C502.741,702.77,504.342,704.615,506.605,704.615z M566.269,704.615h22.75l-2.014,11.168H558.63l-1.262,7.473
				c-0.423,2.266,1.174,4.197,3.44,4.197h24.178l-1.93,11.084h-24.342c-8.318,0-13.942-6.803-12.515-15.113l4.703-26.447
				c1.427-8.314,9.487-15.115,17.797-15.115h24.347l-5.371,11.17h-20.816c-2.271,0-4.539,1.844-4.961,4.199l-2.264,13.01
				L566.269,704.615z M650.696,696.723v0.254l-1.677,9.402v0.25c-1.178,5.967-5.717,11.168-11.341,13.52l7.478,18.389h-12.849
				l-6.887-17.045H615.6l5.375-11.168h12.009c2.348,0,4.53-1.846,4.948-4.197l1.512-8.896c0.418-2.355-1.094-4.199-3.445-4.199
				h-19.73l-7.973,45.506h-11.083l9.99-56.676h31.067C646.495,681.861,652.039,688.494,650.696,696.723z M686.681,738.537h-16.792
				l-5.211-56.676h11.502l4.117,45.09l20.068-45.09h11.502L686.681,738.537z M725.431,738.537h-11.083l9.994-56.676h11.083
				L725.431,738.537z M782.907,693.031h-20.068c-2.264,0-4.535,1.844-4.953,4.199l-4.535,26.025
				c-0.418,2.266,1.179,4.197,3.441,4.197h23.426l-1.93,11.084h-23.59c-8.314,0-13.942-6.803-12.516-15.113l4.704-26.447
				c1.427-8.314,9.487-15.115,17.801-15.115h23.591L782.907,693.031z M813.851,704.615h22.754l-2.014,11.168h-28.379l-1.258,7.473
				c-0.422,2.266,1.174,4.197,3.441,4.197h24.181l-1.93,11.084h-24.35c-8.313,0-13.942-6.803-12.511-15.113l4.699-26.447
				c1.432-8.314,9.492-15.115,17.802-15.115h24.346l-5.371,11.17h-20.82c-2.271,0-4.534,1.844-4.953,4.199l-2.267,13.01
				L813.851,704.615z M888.959,735.43l-0.502,3.107h-11.168l-15.196-35.264l-6.211,35.264h-11.088l9.994-56.676h11.083
				l15.112,35.264l6.296-35.264h11.168L888.959,735.43z M951.727,693.031H935.44l-7.976,45.506h-11.084l6.967-39.967l6.553-5.539
				h-21.833l2.018-11.17h43.659L951.727,693.031z M1009.291,696.723v0.254l-1.681,9.402v0.25
				c-1.174,5.967-5.708,11.168-11.332,13.52l7.473,18.389h-12.848l-6.883-17.045h-9.825l5.375-11.168h12.004
				c2.353,0,4.535-1.846,4.953-4.197l1.512-8.896c0.422-2.355-1.09-4.199-3.441-4.199h-19.731l-7.976,45.506h-11.084l9.99-56.676
				h31.068C1005.095,681.861,1010.63,688.494,1009.291,696.723z M1068.444,696.977l-4.7,26.447
				c-1.427,8.311-9.402,15.113-17.717,15.113h-14.271c-8.313,0-13.938-6.803-12.511-15.113l4.699-26.447
				c1.432-8.314,9.492-15.115,17.802-15.115h14.275C1064.331,681.861,1069.871,688.662,1068.444,696.977z"/>
		</g>
	</g>
	<g>
		<path fill="#FFFFFF" d="M432.778,785.982h-16.205l1.118-6.398h39.24l-1.119,6.398h-16.208l-7.687,43.93h-6.826L432.778,785.982z"
			/>
		<path fill="#FFFFFF" d="M459.484,804.75c2.613-14.93,15.502-26.445,30.859-26.445c15.353,0,24.213,11.516,21.601,26.445
			c-2.613,14.928-15.502,26.439-30.855,26.439C465.732,831.189,456.871,819.678,459.484,804.75z M504.695,804.75
			c1.928-11.02-3.956-20.049-15.474-20.049c-11.514,0-20.557,9.029-22.484,20.049c-1.928,11.014,3.956,20.043,15.47,20.043
			C493.723,824.793,502.768,815.764,504.695,804.75z"/>
		<path fill="#FFFFFF" d="M528.987,779.584h17.701c12.866,0,14.78,7.746,13.672,14.078c-1.119,6.398-6.938,12.438-14.695,13.293
			l10.271,22.957h-8.53l-8.913-22.176h-7.606l-3.881,22.176h-6.824L528.987,779.584z M531.933,801.762h8.954
			c5.403,0,11.029-1.277,12.224-8.1c1.194-6.826-3.984-8.109-9.387-8.109h-8.955L531.933,801.762z"/>
		<path fill="#FFFFFF" d="M575.254,779.584h8.956l20.483,41.373h0.145l7.238-41.373h6.824l-8.809,50.328h-8.671l-20.769-41.371
			h-0.141l-7.24,41.371h-6.824L575.254,779.584z"/>
		<path fill="#FFFFFF" d="M627.138,804.75c2.613-14.93,15.502-26.445,30.859-26.445c15.353,0,24.213,11.516,21.602,26.445
			c-2.612,14.928-15.503,26.439-30.856,26.439C633.387,831.189,624.524,819.678,627.138,804.75z M672.349,804.75
			c1.928-11.02-3.958-20.049-15.472-20.049c-11.518,0-20.562,9.029-22.489,20.049c-1.927,11.014,3.958,20.043,15.474,20.043
			C661.376,824.793,670.421,815.764,672.349,804.75z"/>
		<path fill="#FFFFFF" d="M691.167,819.391c1.771,3.697,5.666,5.402,9.719,5.402c4.477,0,10.519-2.844,11.487-8.385
			c2.03-11.588-24.036-4.41-20.603-24.029c1.033-5.902,7.44-14.074,19.525-14.074c5.472,0,10.533,1.137,13.494,5.756l-6.431,5.051
			c-1.244-2.635-4.273-4.41-8.183-4.41c-7.536,0-10.605,4.549-11.154,7.678c-2.228,12.725,23.912,5.117,20.74,23.244
			c-1.703,9.742-10.541,15.566-20.21,15.566c-6.468,0-12.268-2.203-14.846-6.959L691.167,819.391z"/>
		<path fill="#FFFFFF" d="M768.421,808.445l-14.001-28.861h8.742l9.852,22.109l18.015-22.109h8.317l-24.101,28.861l-3.757,21.467
			h-6.824L768.421,808.445z"/>
		<path fill="#FFFFFF" d="M846.319,779.584h6.186l12.731,50.328h-7.964l-2.87-12.439h-23.954l-7.154,12.439h-7.96L846.319,779.584z
			 M852.959,811.504l-5.339-23.109h-0.143l-13.566,23.109H852.959z"/>
		<path fill="#FFFFFF" d="M916.556,790.461c-2.197-3.699-6.528-5.76-11.147-5.76c-11.303,0-20.345,9.029-22.349,20.477
			c-1.851,10.586,3.604,19.615,15.333,19.615c5.757,0,10.613-2.561,14.334-6.756l4.997,4.34c-1.854,2.062-9.075,8.812-20.593,8.812
			c-15.995,0-23.534-13.361-21.321-26.012c2.735-15.641,15.436-26.873,30.931-26.873c6.613,0,13.143,2.488,16.262,7.816
			L916.556,790.461z"/>
		<path fill="#FFFFFF" d="M969.432,790.461c-2.195-3.699-6.529-5.76-11.148-5.76c-11.301,0-20.344,9.029-22.348,20.477
			c-1.854,10.586,3.604,19.615,15.332,19.615c5.757,0,10.613-2.561,14.333-6.756l5.001,4.34c-1.855,2.062-9.078,8.812-20.594,8.812
			c-15.994,0-23.538-13.361-21.325-26.012c2.738-15.641,15.438-26.873,30.936-26.873c6.609,0,13.14,2.488,16.26,7.816
			L969.432,790.461z"/>
		<path fill="#FFFFFF" d="M989.166,779.584h32.485l-1.119,6.398h-25.661l-2.625,15h23.884l-1.118,6.393h-23.886l-2.824,16.141
			h26.939l-1.117,6.396h-33.766L989.166,779.584z"/>
		<path fill="#FFFFFF" d="M1029.959,819.391c1.771,3.697,5.666,5.402,9.719,5.402c4.479,0,10.521-2.844,11.491-8.385
			c2.026-11.588-24.038-4.41-20.604-24.029c1.03-5.902,7.437-14.074,19.521-14.074c5.474,0,10.533,1.137,13.494,5.756l-6.431,5.051
			c-1.242-2.635-4.273-4.41-8.183-4.41c-7.536,0-10.605,4.549-11.152,7.678c-2.228,12.725,23.912,5.117,20.74,23.244
			c-1.705,9.742-10.545,15.566-20.208,15.566c-6.47,0-12.271-2.203-14.852-6.959L1029.959,819.391z"/>
		<path fill="#FFFFFF" d="M1070.259,804.75c2.613-14.93,15.504-26.445,30.857-26.445c15.354,0,24.215,11.516,21.603,26.445
			c-2.613,14.928-15.5,26.439-30.857,26.439C1076.509,831.189,1067.646,819.678,1070.259,804.75z M1115.468,804.75
			c1.928-11.02-3.956-20.049-15.472-20.049s-20.557,9.029-22.486,20.049c-1.926,11.014,3.956,20.043,15.472,20.043
			S1113.54,815.764,1115.468,804.75z"/>
		<path fill="#FFFFFF" d="M1139.762,779.584h17.701c12.864,0,14.78,7.746,13.673,14.078c-1.12,6.398-6.939,12.438-14.694,13.293
			l10.27,22.957h-8.528l-8.915-22.176h-7.608l-3.881,22.176h-6.822L1139.762,779.584z M1142.705,801.762h8.956
			c5.403,0,11.027-1.277,12.224-8.1c1.194-6.826-3.981-8.109-9.385-8.109h-8.959L1142.705,801.762z"/>
		<path fill="#FFFFFF" d="M1186.03,779.584h6.822l-8.807,50.328h-6.824L1186.03,779.584z"/>
		<path fill="#FFFFFF" d="M1201.1,804.75c2.613-14.93,15.502-26.445,30.856-26.445c15.354,0,24.214,11.516,21.601,26.445
			c-2.613,14.928-15.502,26.439-30.854,26.439C1207.349,831.189,1198.486,819.678,1201.1,804.75z M1246.309,804.75
			c1.928-11.02-3.956-20.049-15.474-20.049c-11.514,0-20.558,9.029-22.487,20.049c-1.928,11.014,3.958,20.043,15.472,20.043
			C1235.338,824.793,1244.381,815.764,1246.309,804.75z"/>
		<path fill="#FFFFFF" d="M1265.129,819.391c1.769,3.697,5.666,5.402,9.715,5.402c4.48,0,10.522-2.844,11.493-8.385
			c2.028-11.588-24.036-4.41-20.603-24.029c1.033-5.902,7.437-14.074,19.521-14.074c5.476,0,10.533,1.137,13.496,5.756l-6.433,5.051
			c-1.242-2.635-4.273-4.41-8.183-4.41c-7.536,0-10.607,4.549-11.154,7.678c-2.228,12.725,23.912,5.117,20.74,23.244
			c-1.703,9.742-10.541,15.566-20.208,15.566c-6.468,0-12.27-2.203-14.851-6.959L1265.129,819.391z"/>
	</g>
</g>
</svg>
