<svg id="Layer_1" data-name="Layer 1" xmlns="http://www.w3.org/2000/svg" viewBox="0 0 26 26"><defs><style>.cls-1{fill:#fff;}</style></defs><title>tel-icon</title><path class="cls-1" d="M41.59,57.63c-1,0-4.08-.31-7.73-4-3.12-3.12-4.26-5.45-3.95-8a4.2,4.2,0,0,1,.6-1.72l-0.05-.06,0.94-1a1.68,1.68,0,0,1,1.16-.5,1.58,1.58,0,0,1,1.17.47L35.93,45a1.65,1.65,0,0,1,0,2.33l-0.85.85a9.82,9.82,0,0,0,4.24,4.24l0.84-.84a1.65,1.65,0,0,1,2.33,0l2.21,2.21a1.65,1.65,0,0,1,0,2.33l-1,.95L43.61,57a4.14,4.14,0,0,1-.68.34,4.22,4.22,0,0,1-1,.26h-0.3Zm-10-13.54-0.07.09a3.1,3.1,0,0,0-.44.78,3.21,3.21,0,0,0-.2.79c-0.27,2.25.79,4.33,3.66,7.21,4,4,7.18,3.67,7.21,3.67a3.19,3.19,0,0,0,.79-0.2A3.07,3.07,0,0,0,43.34,56l0.11-.09,0.49-.48a0.65,0.65,0,0,0,0-.91l-2.21-2.21a0.65,0.65,0,0,0-.91,0L39.47,53.7l-0.55-.3a10.89,10.89,0,0,1-4.8-4.81L33.81,48l1.38-1.38a0.65,0.65,0,0,0,0-.91L33,43.55a0.67,0.67,0,0,0-.44-0.17,0.69,0.69,0,0,0-.47.2Z" transform="translate(-24.5 -37)"/><path class="cls-1" d="M37.5,63a13,13,0,1,1,13-13A13,13,0,0,1,37.5,63Zm0-25a12,12,0,1,0,12,12A12,12,0,0,0,37.5,38Z" transform="translate(-24.5 -37)"/></svg>